<svg width="335" height="317" viewBox="0 0 335 317" fill="none" xmlns="http://www.w3.org/2000/svg">
<path d="M259.775 316.08C226.694 316.08 199.57 290.519 196.993 258.03H275.113C279.19 258.03 282.626 255.293 283.693 251.556H287.191C290.302 251.556 292.825 249.028 292.825 245.91V199.219C310.788 210.337 322.758 230.248 322.758 252.961C322.758 287.82 294.559 316.08 259.775 316.08Z" fill="#EEE7F5"/>
<path d="M51.5609 210.349C28.8465 190.604 14.4684 161.401 14.4684 128.822C14.4684 69.3542 62.3634 21.1462 121.445 21.1462C166.076 21.1462 204.327 48.6621 220.365 87.7557H60.4607C55.5489 87.7557 51.5609 91.77 51.5609 96.7138V210.349Z" fill="#EEE7F5"/>
<path d="M309.307 146.411L309.052 146.132C306.941 148.066 304.276 149.019 301.616 149.019C298.629 149.019 295.655 147.818 293.485 145.447C291.552 143.336 290.598 140.672 290.598 138.012C290.598 135.026 291.8 132.052 294.17 129.881C296.282 127.947 298.946 126.995 301.606 126.994C304.593 126.995 307.567 128.196 309.738 130.566C311.67 132.678 312.624 135.342 312.624 138.002C312.624 140.988 311.422 143.962 309.052 146.132L309.307 146.411L309.563 146.69C312.094 144.372 313.381 141.19 313.38 138.002C313.381 135.162 312.36 132.31 310.295 130.056C307.977 127.523 304.795 126.238 301.606 126.238C298.766 126.238 295.914 127.259 293.66 129.324C291.127 131.642 289.841 134.824 289.842 138.012C289.841 140.852 290.862 143.703 292.927 145.959C295.245 148.49 298.427 149.776 301.616 149.776C304.456 149.776 307.307 148.756 309.562 146.69L309.307 146.411ZM316.924 117.78L316.668 117.501L313.498 120.404C313.373 120.519 313.266 120.641 313.17 120.765L313.471 120.995L313.687 120.685C311.636 119.255 309.38 118.227 307.033 117.607L306.936 117.973L307.306 118.053C307.338 117.901 307.366 117.738 307.373 117.564L307.541 113.267L307.543 113.156C307.542 111.658 306.358 110.415 304.85 110.354L300.553 110.185L300.442 110.183C298.944 110.183 297.7 111.368 297.641 112.878L297.471 117.174L297.469 117.265C297.469 117.406 297.482 117.541 297.499 117.667L297.874 117.616L297.806 117.244C295.483 117.665 293.213 118.48 291.104 119.691L291.292 120.019L291.61 119.815C291.527 119.685 291.431 119.554 291.316 119.428V119.429L288.413 116.258C287.861 115.654 287.101 115.347 286.343 115.348C285.667 115.347 284.987 115.591 284.45 116.083L281.279 118.986C280.676 119.538 280.369 120.298 280.37 121.056C280.369 121.731 280.613 122.412 281.105 122.949L284.008 126.12C284.122 126.245 284.245 126.352 284.368 126.447L284.599 126.148L284.289 125.932C282.858 127.983 281.831 130.238 281.211 132.585L281.576 132.682L281.657 132.312C281.505 132.279 281.342 132.253 281.168 132.245L276.87 132.077L276.758 132.074C276.057 132.074 275.386 132.334 274.866 132.81L274.86 132.816L274.847 132.83L275.114 133.097L274.857 132.819C274.308 133.326 273.987 134.023 273.958 134.769L273.789 139.072V139.081H274.167L273.79 139.066L273.787 139.177C273.787 140.674 274.972 141.918 276.481 141.977L280.778 142.147L280.863 142.148C281.008 142.148 281.144 142.135 281.271 142.117L281.219 141.743L280.847 141.81C281.269 144.135 282.084 146.404 283.294 148.514L283.623 148.326L283.42 148.007C283.288 148.091 283.157 148.188 283.033 148.301L279.861 151.205C279.258 151.757 278.951 152.517 278.952 153.274C278.951 153.95 279.195 154.631 279.687 155.168L282.59 158.339C283.142 158.941 283.902 159.248 284.66 159.248C285.335 159.248 286.016 159.005 286.553 158.513L289.724 155.609C289.849 155.496 289.957 155.373 290.051 155.249L289.752 155.019L289.536 155.329C291.588 156.76 293.843 157.788 296.19 158.407L296.287 158.041L295.918 157.96C295.886 158.109 295.856 158.272 295.849 158.452V158.451L295.681 162.746L295.679 162.86C295.678 163.567 295.942 164.241 296.424 164.761C296.93 165.31 297.627 165.631 298.373 165.66L302.669 165.828L302.78 165.831C303.505 165.831 304.172 165.552 304.672 165.094C305.204 164.607 305.552 163.913 305.583 163.136L305.751 158.839V158.838L305.753 158.758C305.753 158.612 305.739 158.475 305.722 158.347L305.347 158.399L305.415 158.771C307.738 158.349 310.008 157.533 312.118 156.323L311.93 155.995L311.611 156.199C311.695 156.33 311.792 156.461 311.906 156.585L314.81 159.757C315.362 160.359 316.121 160.666 316.879 160.666C317.555 160.666 318.235 160.423 318.772 159.931L321.943 157.027C322.546 156.476 322.853 155.716 322.853 154.958C322.853 154.282 322.609 153.602 322.118 153.065L319.214 149.893C319.099 149.769 318.978 149.661 318.853 149.566L318.623 149.866L318.933 150.083C320.364 148.03 321.391 145.775 322.011 143.427L321.645 143.331L321.564 143.7C321.715 143.733 321.878 143.761 322.055 143.769L326.352 143.937L326.462 143.94C327.187 143.94 327.856 143.661 328.355 143.202C328.887 142.716 329.234 142.021 329.264 141.245L329.434 136.948L329.435 136.839C329.435 135.34 328.25 134.096 326.741 134.036L322.444 133.867L322.352 133.866C322.212 133.866 322.078 133.878 321.952 133.894L322.002 134.269L322.374 134.202C321.952 131.879 321.138 129.609 319.927 127.5L319.599 127.688L319.803 128.006C319.933 127.923 320.065 127.827 320.19 127.712L323.361 124.809C323.964 124.257 324.271 123.498 324.271 122.739C324.271 122.064 324.027 121.383 323.536 120.847L320.631 117.675C320.079 117.072 319.32 116.765 318.562 116.766C317.887 116.765 317.205 117.009 316.668 117.501L316.924 117.78L317.18 118.059C317.573 117.699 318.067 117.522 318.562 117.522C319.119 117.522 319.67 117.745 320.073 118.186L322.978 121.357C323.338 121.75 323.514 122.243 323.515 122.739C323.514 123.296 323.292 123.847 322.85 124.251L319.679 127.155C319.593 127.234 319.499 127.304 319.396 127.37L319.092 127.563L319.271 127.876C320.439 129.91 321.223 132.096 321.63 134.337L321.695 134.692L322.052 134.644C322.157 134.63 322.256 134.622 322.352 134.622L322.414 134.623L326.711 134.791C327.811 134.834 328.68 135.746 328.679 136.839L328.678 136.919L328.509 141.215C328.486 141.784 328.234 142.288 327.844 142.644C327.478 142.981 326.992 143.184 326.462 143.184L326.381 143.182L322.085 143.013C321.971 143.008 321.853 142.989 321.726 142.961L321.372 142.884L321.28 143.234C320.683 145.498 319.692 147.672 318.313 149.65L318.106 149.946L318.393 150.166C318.488 150.24 318.576 150.318 318.656 150.405L321.56 153.575C321.92 153.968 322.096 154.462 322.097 154.958C322.096 155.515 321.874 156.066 321.432 156.47L318.262 159.373C317.868 159.733 317.375 159.909 316.879 159.91C316.322 159.909 315.771 159.687 315.367 159.246L312.463 156.075C312.385 155.989 312.314 155.893 312.249 155.791L312.054 155.488L311.742 155.667C309.708 156.834 307.521 157.62 305.279 158.026L304.923 158.091L304.972 158.449C304.987 158.557 304.997 158.659 304.997 158.758L304.996 158.811V158.81L304.826 163.106C304.804 163.675 304.552 164.178 304.162 164.536C303.794 164.872 303.31 165.074 302.78 165.074L302.699 165.073L298.403 164.904C297.854 164.882 297.352 164.651 296.979 164.248C296.625 163.864 296.435 163.378 296.435 162.86L296.436 162.777L296.606 158.48V158.479C296.609 158.367 296.628 158.249 296.656 158.123L296.734 157.768L296.384 157.676C294.12 157.078 291.946 156.088 289.967 154.709L289.672 154.503L289.452 154.789C289.378 154.885 289.3 154.972 289.213 155.051L286.042 157.955C285.649 158.315 285.155 158.492 284.66 158.492C284.103 158.492 283.552 158.269 283.148 157.828L280.245 154.657C279.885 154.264 279.708 153.77 279.708 153.274C279.708 152.718 279.931 152.167 280.372 151.763L283.542 148.859C283.629 148.78 283.724 148.71 283.825 148.645L284.13 148.452L283.951 148.138C282.783 146.104 281.998 143.917 281.591 141.675L281.527 141.319L281.167 141.368C281.061 141.383 280.96 141.392 280.863 141.392L280.807 141.391L276.511 141.222C275.411 141.18 274.543 140.268 274.544 139.177L274.545 139.095V139.088V139.087L274.714 134.799C274.736 134.249 274.967 133.748 275.37 133.375L275.376 133.37L275.389 133.356L275.122 133.089L275.378 133.368C275.76 133.018 276.243 132.831 276.758 132.831L276.841 132.832L281.138 133.001C281.253 133.005 281.372 133.024 281.496 133.051L281.849 133.128L281.942 132.778C282.54 130.515 283.53 128.341 284.909 126.364L285.115 126.068L284.829 125.848C284.733 125.773 284.645 125.696 284.566 125.609L281.663 122.438C281.303 122.045 281.126 121.551 281.126 121.056C281.126 120.499 281.349 119.948 281.79 119.544L284.96 116.641C285.353 116.281 285.847 116.104 286.343 116.104C286.9 116.104 287.451 116.327 287.855 116.768L290.759 119.939L290.76 119.94C290.838 120.025 290.907 120.119 290.973 120.223L291.167 120.526L291.48 120.347C293.514 119.18 295.7 118.394 297.942 117.988L298.298 117.923L298.249 117.564C298.234 117.46 298.225 117.36 298.225 117.265L298.227 117.205L298.396 112.908C298.438 111.807 299.35 110.939 300.442 110.939L300.523 110.941L304.82 111.11C305.92 111.152 306.788 112.065 306.787 113.156L306.786 113.238L306.618 117.534V117.533C306.612 117.648 306.594 117.767 306.567 117.892L306.49 118.246L306.839 118.338C309.103 118.937 311.277 119.926 313.254 121.305L313.55 121.512L313.77 121.225C313.843 121.129 313.922 121.042 314.008 120.962L317.18 118.059L316.924 117.78Z" fill="#212C5A"/>
<path d="M25.4014 166.955H21.6243C21.3112 166.955 21.0571 166.703 21.0571 166.393C21.0571 166.082 21.3112 165.831 21.6243 165.831H25.4014C25.7142 165.831 25.9679 166.082 25.9679 166.393C25.9679 166.703 25.7142 166.955 25.4014 166.955ZM32.9565 166.955H29.1788C28.866 166.955 28.6122 166.703 28.6122 166.393C28.6122 166.082 28.866 165.831 29.1788 165.831H32.9565C33.269 165.831 33.5227 166.082 33.5227 166.393C33.5227 166.703 33.269 166.955 32.9565 166.955ZM40.511 166.955H36.7336C36.4208 166.955 36.167 166.703 36.167 166.393C36.167 166.082 36.4208 165.831 36.7336 165.831H40.511C40.8235 165.831 41.0775 166.082 41.0775 166.393C41.0775 166.703 40.8235 166.955 40.511 166.955ZM48.0658 166.955H44.2881C43.9753 166.955 43.7215 166.703 43.7215 166.393C43.7215 166.082 43.9753 165.831 44.2881 165.831H48.0658C48.3786 165.831 48.6323 166.082 48.6323 166.393C48.6323 166.703 48.3786 166.955 48.0658 166.955ZM55.6202 166.955H51.8429C51.5304 166.955 51.2763 166.703 51.2763 166.393C51.2763 166.082 51.5304 165.831 51.8429 165.831H55.6202C55.9331 165.831 56.187 166.082 56.187 166.393C56.187 166.703 55.9331 166.955 55.6202 166.955ZM63.175 166.955H59.3976C59.0847 166.955 58.8316 166.703 58.8316 166.393C58.8316 166.082 59.0847 165.831 59.3976 165.831H63.175C63.4879 165.831 63.7418 166.082 63.7418 166.393C63.7418 166.703 63.4879 166.955 63.175 166.955ZM70.7298 166.955H66.9524C66.6395 166.955 66.3856 166.703 66.3856 166.393C66.3856 166.082 66.6395 165.831 66.9524 165.831H70.7298C71.0427 165.831 71.2958 166.082 71.2958 166.393C71.2958 166.703 71.0427 166.955 70.7298 166.955ZM78.2846 166.955H74.5072C74.1942 166.955 73.9404 166.703 73.9404 166.393C73.9404 166.082 74.1942 165.831 74.5072 165.831H78.2846C78.5975 165.831 78.8514 166.082 78.8514 166.393C78.8514 166.703 78.5975 166.955 78.2846 166.955ZM85.8394 166.955H82.062C81.749 166.955 81.4952 166.703 81.4952 166.393C81.4952 166.082 81.749 165.831 82.062 165.831H85.8394C86.1523 165.831 86.4062 166.082 86.4062 166.393C86.4062 166.703 86.1523 166.955 85.8394 166.955ZM93.3942 166.955H89.6168C89.3038 166.955 89.05 166.703 89.05 166.393C89.05 166.082 89.3038 165.831 89.6168 165.831H93.3942C93.7071 165.831 93.9602 166.082 93.9602 166.393C93.9602 166.703 93.7071 166.955 93.3942 166.955ZM100.949 166.955H97.1715C96.8586 166.955 96.6048 166.703 96.6048 166.393C96.6048 166.082 96.8586 165.831 97.1715 165.831H100.949C101.261 165.831 101.515 166.082 101.515 166.393C101.515 166.703 101.261 166.955 100.949 166.955ZM108.503 166.955H104.726C104.413 166.955 104.16 166.703 104.16 166.393C104.16 166.082 104.413 165.831 104.726 165.831H108.503C108.816 165.831 109.07 166.082 109.07 166.393C109.07 166.703 108.816 166.955 108.503 166.955ZM14.3661 168.673C14.1666 168.673 13.9737 168.57 13.8703 168.385C13.7181 168.113 13.8164 167.771 14.0899 167.621C15.2386 166.988 16.4684 166.515 17.7453 166.214C18.0533 166.144 18.3554 166.33 18.4275 166.632C18.4997 166.934 18.3113 167.237 18.0069 167.308C16.831 167.584 15.6985 168.02 14.6406 168.603C14.553 168.651 14.459 168.673 14.3661 168.673ZM9.05922 173.876C8.96396 173.876 8.86747 173.852 8.77881 173.803C8.50707 173.648 8.41304 173.304 8.56789 173.036C9.21776 171.906 10.0212 170.869 10.956 169.953C11.1786 169.736 11.5373 169.737 11.7572 169.958C11.9771 170.179 11.9756 170.534 11.7527 170.753C10.891 171.597 10.1501 172.553 9.55208 173.593C9.44724 173.774 9.25641 173.876 9.05922 173.876ZM7.24423 181.054C6.93115 181.054 6.67773 180.802 6.67773 180.492V180.113C6.67773 178.939 6.82154 177.771 7.10556 176.643C7.18164 176.342 7.49503 176.158 7.79224 176.234C8.09635 176.309 8.28119 176.614 8.20511 176.915C7.94356 177.955 7.81049 179.031 7.81049 180.113V180.492C7.81049 180.802 7.55701 181.054 7.24423 181.054ZM7.24423 188.549C6.93115 188.549 6.67773 188.297 6.67773 187.987V184.239C6.67773 183.929 6.93115 183.677 7.24423 183.677C7.55701 183.677 7.81049 183.929 7.81049 184.239V187.987C7.81049 188.297 7.55701 188.549 7.24423 188.549ZM7.24423 196.044C6.93115 196.044 6.67773 195.792 6.67773 195.481V191.734C6.67773 191.424 6.93115 191.172 7.24423 191.172C7.55701 191.172 7.81049 191.424 7.81049 191.734V195.481C7.81049 195.792 7.55701 196.044 7.24423 196.044ZM7.24423 203.539C6.93115 203.539 6.67773 203.287 6.67773 202.976V199.229C6.67773 198.918 6.93115 198.667 7.24423 198.667C7.55701 198.667 7.81049 198.918 7.81049 199.229V202.976C7.81049 203.287 7.55701 203.539 7.24423 203.539ZM7.24423 211.033C6.93115 211.033 6.67773 210.782 6.67773 210.471V206.724C6.67773 206.413 6.93115 206.162 7.24423 206.162C7.55701 206.162 7.81049 206.413 7.81049 206.724V210.471C7.81049 210.782 7.55701 211.033 7.24423 211.033ZM7.24423 218.528C6.93115 218.528 6.67773 218.277 6.67773 217.966V214.219C6.67773 213.908 6.93115 213.656 7.24423 213.656C7.55701 213.656 7.81049 213.908 7.81049 214.219V217.966C7.81049 218.277 7.55701 218.528 7.24423 218.528ZM7.24423 226.023C6.93115 226.023 6.67773 225.771 6.67773 225.46V221.713C6.67773 221.403 6.93115 221.151 7.24423 221.151C7.55701 221.151 7.81049 221.403 7.81049 221.713V225.46C7.81049 225.771 7.55701 226.023 7.24423 226.023ZM7.24423 233.518C6.93115 233.518 6.67773 233.266 6.67773 232.956V229.209C6.67773 228.898 6.93115 228.646 7.24423 228.646C7.55701 228.646 7.81049 228.898 7.81049 229.209V232.956C7.81049 233.266 7.55701 233.518 7.24423 233.518ZM7.24423 241.013C6.93115 241.013 6.67773 240.761 6.67773 240.45V236.703C6.67773 236.392 6.93115 236.14 7.24423 236.14C7.55701 236.14 7.81049 236.392 7.81049 236.703V240.45C7.81049 240.761 7.55701 241.013 7.24423 241.013ZM7.24423 248.507C6.93115 248.507 6.67773 248.255 6.67773 247.945V244.198C6.67773 243.888 6.93115 243.636 7.24423 243.636C7.55701 243.636 7.81049 243.888 7.81049 244.198V247.945C7.81049 248.255 7.55701 248.507 7.24423 248.507ZM7.24423 256.002C6.93115 256.002 6.67773 255.75 6.67773 255.441V251.693C6.67773 251.383 6.93115 251.131 7.24423 251.131C7.55701 251.131 7.81049 251.383 7.81049 251.693V255.441C7.81049 255.75 7.55701 256.002 7.24423 256.002ZM7.24423 263.497C6.93115 263.497 6.67773 263.245 6.67773 262.935V259.187C6.67773 258.877 6.93115 258.625 7.24423 258.625C7.55701 258.625 7.81049 258.877 7.81049 259.187V262.935C7.81049 263.245 7.55701 263.497 7.24423 263.497ZM7.24423 270.992C6.93115 270.992 6.67773 270.74 6.67773 270.43V266.682C6.67773 266.373 6.93115 266.121 7.24423 266.121C7.55701 266.121 7.81049 266.373 7.81049 266.682V270.43C7.81049 270.74 7.55701 270.992 7.24423 270.992ZM8.61882 278.279C8.40759 278.279 8.20564 278.163 8.10709 277.961C7.53668 276.786 7.1298 275.542 6.90062 274.262C6.84609 273.956 7.05133 273.664 7.35928 273.611C7.66553 273.559 7.96151 273.759 8.01604 274.065C8.22789 275.245 8.60179 276.391 9.12848 277.473C9.26416 277.753 9.14612 278.088 8.86448 278.223C8.78479 278.262 8.70119 278.279 8.61882 278.279ZM13.556 283.828C13.4502 283.828 13.3436 283.798 13.248 283.737C12.1496 283.03 11.1508 282.176 10.2801 281.199C10.0734 280.967 10.0959 280.611 10.3305 280.405C10.5636 280.201 10.9221 280.221 11.1298 280.455C11.9321 281.356 12.852 282.142 13.8649 282.794C14.1279 282.963 14.2019 283.311 14.0315 283.571C13.9233 283.737 13.7417 283.828 13.556 283.828ZM20.6782 286.024H20.6628C19.3459 285.987 18.0453 285.774 16.7962 285.389C16.4972 285.296 16.3306 284.982 16.4235 284.685C16.5164 284.39 16.831 284.223 17.1323 284.315C18.2825 284.67 19.4809 284.866 20.6944 284.9C21.0068 284.908 21.254 285.168 21.2447 285.477C21.2357 285.783 20.9847 286.024 20.6782 286.024ZM28.2333 286.03H24.4556C24.1428 286.03 23.889 285.778 23.889 285.467C23.889 285.157 24.1428 284.905 24.4556 284.905H28.2333C28.5457 284.905 28.7998 285.157 28.7998 285.467C28.7998 285.778 28.5457 286.03 28.2333 286.03ZM35.7878 286.03H32.0104C31.6976 286.03 31.4438 285.778 31.4438 285.467C31.4438 285.157 31.6976 284.905 32.0104 284.905H35.7878C36.1008 284.905 36.3543 285.157 36.3543 285.467C36.3543 285.778 36.1008 286.03 35.7878 286.03ZM43.3426 286.03H39.5652C39.2521 286.03 38.9986 285.778 38.9986 285.467C38.9986 285.157 39.2521 284.905 39.5652 284.905H43.3426C43.6553 284.905 43.909 285.157 43.909 285.467C43.909 285.778 43.6553 286.03 43.3426 286.03ZM50.8973 286.03H47.1196C46.8072 286.03 46.5531 285.778 46.5531 285.467C46.5531 285.157 46.8072 284.905 47.1196 284.905H50.8973C51.2101 284.905 51.4635 285.157 51.4635 285.467C51.4635 285.778 51.2101 286.03 50.8973 286.03ZM58.4519 286.03H54.6745C54.3616 286.03 54.1077 285.778 54.1077 285.467C54.1077 285.157 54.3616 284.905 54.6745 284.905H58.4519C58.7648 284.905 59.0187 285.157 59.0187 285.467C59.0187 285.778 58.7648 286.03 58.4519 286.03ZM63.9236 286.03H62.2293C61.9164 286.03 61.6625 285.778 61.6625 285.467C61.6625 285.157 61.9164 284.905 62.2293 284.905H63.9236C64.2365 284.905 64.4904 285.157 64.4904 285.467C64.4904 285.778 64.2365 286.03 63.9236 286.03Z" fill="#A08BCD"/>
<path d="M10.0166 225.374C10.0166 226.911 9.02041 228.156 7.7907 228.156C6.56134 228.156 5.56482 226.911 5.56482 225.374C5.56482 223.838 6.56134 222.591 7.7907 222.591C9.02041 222.591 10.0166 223.838 10.0166 225.374Z" fill="#A08BCD"/>
<path d="M7.23442 220.911C4.81113 220.911 2.83952 222.663 2.83952 224.817C2.83952 226.972 4.81113 228.725 7.23442 228.725C9.65813 228.725 11.6294 226.972 11.6294 224.817C11.6294 222.663 9.65813 220.911 7.23442 220.911ZM7.23442 229.269C4.47292 229.269 2.22595 227.272 2.22595 224.817C2.22595 222.363 4.47292 220.365 7.23442 220.365C9.99601 220.365 12.2426 222.363 12.2426 224.817C12.2426 227.272 9.99601 229.269 7.23442 229.269Z" fill="#A08BCD"/>
<path d="M160.801 25.8649H156.192C155.811 25.8649 155.502 25.5556 155.502 25.175C155.502 24.7943 155.811 24.4851 156.192 24.4851H160.801C161.183 24.4851 161.492 24.7943 161.492 25.175C161.492 25.5556 161.183 25.8649 160.801 25.8649ZM170.018 25.8649H165.409C165.027 25.8649 164.717 25.5556 164.717 25.175C164.717 24.7943 165.027 24.4851 165.409 24.4851H170.018C170.399 24.4851 170.709 24.7943 170.709 25.175C170.709 25.5556 170.399 25.8649 170.018 25.8649ZM179.234 25.8649H174.626C174.245 25.8649 173.934 25.5556 173.934 25.175C173.934 24.7943 174.245 24.4851 174.626 24.4851H179.234C179.616 24.4851 179.925 24.7943 179.925 25.175C179.925 25.5556 179.616 25.8649 179.234 25.8649ZM188.451 25.8649H183.843C183.461 25.8649 183.151 25.5556 183.151 25.175C183.151 24.7943 183.461 24.4851 183.843 24.4851H188.451C188.832 24.4851 189.142 24.7943 189.142 25.175C189.142 25.5556 188.832 25.8649 188.451 25.8649ZM147.017 26.3653C146.707 26.3653 146.426 26.1557 146.347 25.8426C146.255 25.4727 146.48 25.0982 146.851 25.0061C148.238 24.6608 149.673 24.4851 151.118 24.4851H151.584C151.966 24.4851 152.275 24.7943 152.275 25.175C152.275 25.5556 151.966 25.8649 151.584 25.8649H151.118C149.787 25.8649 148.464 26.0261 147.186 26.3445L147.017 26.3653ZM197.461 27.3315C197.366 27.3315 197.27 27.3123 197.178 27.2709C195.832 26.6692 194.408 26.2548 192.949 26.0391C192.572 25.9831 192.31 25.6324 192.366 25.2556C192.422 24.8788 192.771 24.6109 193.151 24.6746C194.736 24.9079 196.281 25.3584 197.743 26.0123C198.091 26.1681 198.247 26.5763 198.091 26.924C197.976 27.1795 197.724 27.3315 197.461 27.3315ZM139.117 30.8678C138.941 30.8678 138.765 30.801 138.631 30.6683C138.359 30.4012 138.357 29.9645 138.625 29.6929C139.753 28.5548 141.027 27.577 142.414 26.7858C142.744 26.5963 143.167 26.7122 143.358 27.0422C143.547 27.3729 143.431 27.7942 143.1 27.9838C141.822 28.7121 140.648 29.6138 139.608 30.6629C139.473 30.7995 139.294 30.8678 139.117 30.8678ZM204.455 33.1448C204.235 33.1448 204.018 33.0411 203.885 32.8477C203.046 31.6344 202.045 30.5432 200.912 29.6008C200.62 29.3575 200.579 28.9223 200.824 28.6292C201.069 28.336 201.504 28.2977 201.798 28.5409C203.026 29.5631 204.111 30.7473 205.023 32.0627C205.24 32.3758 205.161 32.8055 204.847 33.022C204.727 33.1048 204.59 33.1448 204.455 33.1448ZM134.701 38.8084L134.541 38.7899C134.169 38.7017 133.939 38.3302 134.028 37.9596C134.397 36.4032 134.979 34.906 135.757 33.5093C135.942 33.1762 136.364 33.0557 136.697 33.2422C137.031 33.4272 137.151 33.8477 136.966 34.18C136.248 35.4662 135.713 36.8445 135.372 38.2773C135.298 38.595 135.014 38.8084 134.701 38.8084ZM207.402 41.7315C207.039 41.7315 206.734 41.4476 206.712 41.0807C206.629 39.6073 206.345 38.1561 205.868 36.7678C205.745 36.4079 205.937 36.0157 206.298 35.8914C206.656 35.7694 207.053 35.9597 207.175 36.3211C207.695 37.8276 208.003 39.4031 208.094 41.0024C208.116 41.3831 207.824 41.7085 207.443 41.7307L207.402 41.7315ZM134.246 47.9692C133.865 47.9692 133.555 47.6599 133.555 47.2793V42.6808C133.555 42.3002 133.865 41.9909 134.246 41.9909C134.628 41.9909 134.938 42.3002 134.938 42.6808V47.2793C134.938 47.6599 134.628 47.9692 134.246 47.9692ZM207.432 50.9276C207.051 50.9276 206.742 50.6183 206.742 50.2377V45.6392C206.742 45.2586 207.051 44.9493 207.432 44.9493C207.814 44.9493 208.123 45.2586 208.123 45.6392V50.2377C208.123 50.6183 207.814 50.9276 207.432 50.9276ZM134.246 57.166C133.865 57.166 133.555 56.8567 133.555 56.4761V51.8777C133.555 51.497 133.865 51.1885 134.246 51.1885C134.628 51.1885 134.938 51.497 134.938 51.8777V56.4761C134.938 56.8567 134.628 57.166 134.246 57.166ZM207.432 60.1245C207.051 60.1245 206.742 59.816 206.742 59.4345V54.8361C206.742 54.4555 207.051 54.147 207.432 54.147C207.814 54.147 208.123 54.4555 208.123 54.8361V59.4345C208.123 59.816 207.814 60.1245 207.432 60.1245ZM134.246 66.3629C133.865 66.3629 133.555 66.0544 133.555 65.6737V61.0745C133.555 60.6939 133.865 60.3846 134.246 60.3846C134.628 60.3846 134.938 60.6939 134.938 61.0745V65.6737C134.938 66.0544 134.628 66.3629 134.246 66.3629ZM207.432 69.3213C207.051 69.3213 206.742 69.0128 206.742 68.6322V64.033C206.742 63.6523 207.051 63.343 207.432 63.343C207.814 63.343 208.123 63.6523 208.123 64.033V68.6322C208.123 69.0128 207.814 69.3213 207.432 69.3213ZM134.246 75.5598C133.865 75.5598 133.555 75.2513 133.555 74.8699V70.2714C133.555 69.8907 133.865 69.5822 134.246 69.5822C134.628 69.5822 134.938 69.8907 134.938 70.2714V74.8699C134.938 75.2513 134.628 75.5598 134.246 75.5598ZM207.432 78.5182C207.051 78.5182 206.742 78.2097 206.742 77.829V73.2306C206.742 72.8492 207.051 72.5407 207.432 72.5407C207.814 72.5407 208.123 72.8492 208.123 73.2306V77.829C208.123 78.2097 207.814 78.5182 207.432 78.5182ZM134.246 84.7574C133.865 84.7574 133.555 84.4481 133.555 84.0675V79.469C133.555 79.0884 133.865 78.7791 134.246 78.7791C134.628 78.7791 134.938 79.0884 134.938 79.469V84.0675C134.938 84.4481 134.628 84.7574 134.246 84.7574ZM207.432 87.7158C207.051 87.7158 206.742 87.4066 206.742 87.0259V82.4275C206.742 82.0468 207.051 81.7376 207.432 81.7376C207.814 81.7376 208.123 82.0468 208.123 82.4275V87.0259C208.123 87.4066 207.814 87.7158 207.432 87.7158ZM134.246 93.9543C133.865 93.9543 133.555 93.645 133.555 93.2643V88.6659C133.555 88.2845 133.865 87.976 134.246 87.976C134.628 87.976 134.938 88.2845 134.938 88.6659V93.2643C134.938 93.645 134.628 93.9543 134.246 93.9543ZM207.432 94.8667C207.051 94.8667 206.742 94.5574 206.742 94.1768V91.6243C206.742 91.2437 207.051 90.9344 207.432 90.9344C207.814 90.9344 208.123 91.2437 208.123 91.6243V94.1768C208.123 94.5574 207.814 94.8667 207.432 94.8667ZM134.246 103.151C133.865 103.151 133.555 102.842 133.555 102.461V97.8628C133.555 97.4821 133.865 97.1728 134.246 97.1728C134.628 97.1728 134.938 97.4821 134.938 97.8628V102.461C134.938 102.842 134.628 103.151 134.246 103.151ZM134.246 112.348C133.865 112.348 133.555 112.039 133.555 111.658V107.06C133.555 106.679 133.865 106.37 134.246 106.37C134.628 106.37 134.938 106.679 134.938 107.06V111.658C134.938 112.039 134.628 112.348 134.246 112.348ZM134.246 121.545C133.865 121.545 133.555 121.236 133.555 120.855V116.256C133.555 115.876 133.865 115.567 134.246 115.567C134.628 115.567 134.938 115.876 134.938 116.256V120.855C134.938 121.236 134.628 121.545 134.246 121.545ZM134.246 130.742C133.865 130.742 133.555 130.433 133.555 130.053V125.454C133.555 125.073 133.865 124.764 134.246 124.764C134.628 124.764 134.938 125.073 134.938 125.454V130.053C134.938 130.433 134.628 130.742 134.246 130.742ZM134.246 139.939C133.865 139.939 133.555 139.63 133.555 139.249V134.651C133.555 134.27 133.865 133.961 134.246 133.961C134.628 133.961 134.938 134.27 134.938 134.651V139.249C134.938 139.63 134.628 139.939 134.246 139.939ZM134.246 149.136C133.865 149.136 133.555 148.827 133.555 148.446V143.848C133.555 143.467 133.865 143.158 134.246 143.158C134.628 143.158 134.938 143.467 134.938 143.848V148.446C134.938 148.827 134.628 149.136 134.246 149.136Z" fill="#A08BCD"/>
<path d="M170.839 7.7907C172.376 7.7907 173.621 6.54492 173.621 5.0083C173.621 3.47169 172.376 2.22591 170.839 2.22591C169.303 2.22591 168.057 3.47169 168.057 5.0083C168.057 6.54492 169.303 7.7907 170.839 7.7907Z" fill="#A08BCD"/>
<path d="M170.282 0.545138C168.128 0.545138 166.376 2.29802 166.376 4.45183C166.376 6.60635 168.128 8.35852 170.282 8.35852C172.436 8.35852 174.19 6.60635 174.19 4.45183C174.19 2.29802 172.436 0.545138 170.282 0.545138ZM170.282 8.90366C167.828 8.90366 165.831 6.9067 165.831 4.45183C165.831 1.99696 167.828 1.90735e-06 170.282 1.90735e-06C172.737 1.90735e-06 174.734 1.99696 174.734 4.45183C174.734 6.9067 172.737 8.90366 170.282 8.90366Z" fill="#A08BCD"/>
<path d="M173.621 71.2292H129.103V62.3256H173.621V71.2292Z" fill="#B7B9B7"/>
<path d="M208.667 60.0997H176.922C174.611 60.0997 172.42 60.867 170.934 62.1962L162.31 68.5815H128.336C126.915 68.5815 125.764 69.7204 125.764 71.1261V117.655C125.764 119.06 126.915 120.199 128.336 120.199H211.116C212.536 120.199 213.688 119.06 213.688 117.655V72.701V71.1261V65.7539C213.688 62.7657 211.44 60.0997 208.667 60.0997Z" fill="#FAB743"/>
<path d="M68.8921 245.121L68.6247 244.846C65.3187 248.05 61.0406 249.644 56.7625 249.645C52.3075 249.644 47.8609 247.915 44.5231 244.473C41.3181 241.166 39.7244 236.888 39.7241 232.611C39.7244 228.155 41.4535 223.709 44.8963 220.371C48.202 217.166 52.4801 215.572 56.7579 215.571C61.2127 215.572 65.6599 217.301 68.9974 220.744C72.2027 224.05 73.7957 228.328 73.7965 232.605C73.7957 237.061 72.0674 241.507 68.6247 244.846L68.8921 245.121L69.1595 245.397C72.7567 241.909 74.5657 237.258 74.565 232.605C74.565 228.138 72.8981 223.663 69.5491 220.209C66.0618 216.612 61.4102 214.803 56.7579 214.803C52.2905 214.803 47.815 216.471 44.3614 219.819C40.7639 223.306 38.955 227.958 38.9556 232.611C38.955 237.078 40.6226 241.553 43.9714 245.008C47.4587 248.605 52.11 250.413 56.7625 250.413C61.2296 250.413 65.706 248.746 69.1595 245.397L68.8921 245.121ZM79.2895 201.018L79.0221 200.742L74.2998 205.32C74.1246 205.491 73.9725 205.673 73.8372 205.859L74.1492 206.085L74.3598 205.763C71.1806 203.679 67.7086 202.216 64.116 201.375L64.0284 201.749L64.4065 201.82C64.4488 201.593 64.4811 201.354 64.4834 201.102L64.5548 194.526V194.482C64.5541 192.244 62.7481 190.412 60.5034 190.387L53.9282 190.316H53.8838C51.6453 190.316 49.8139 192.122 49.7893 194.367L49.7185 200.943L49.7182 200.98C49.7182 201.218 49.7443 201.445 49.7797 201.661L50.1588 201.598L50.0796 201.223C46.5662 201.964 43.1543 203.3 40.0012 205.231L40.2017 205.558L40.5199 205.343C40.3911 205.152 40.2452 204.966 40.0741 204.79H40.0744L35.4969 200.068C34.6954 199.241 33.624 198.825 32.5557 198.826C31.5299 198.825 30.4994 199.209 29.706 199.978L24.9847 204.556C24.1577 205.358 23.7414 206.429 23.7417 207.497C23.7414 208.523 24.1253 209.554 24.8949 210.347L29.4725 215.069C29.6433 215.245 29.8255 215.396 30.0111 215.531L30.2364 215.219L29.915 215.009C27.8308 218.187 26.3677 221.659 25.5272 225.253L25.9012 225.34L25.9717 224.962C25.7451 224.92 25.5062 224.888 25.2543 224.885L18.6586 224.814H18.6794H18.634C17.5659 224.813 16.5513 225.223 15.7841 225.969L15.7799 225.972L15.7633 225.99L16.0392 226.257L15.7706 225.983C14.9898 226.745 14.5506 227.774 14.5398 228.865L14.469 235.441L14.8532 235.445V235.061H14.8526H14.4725L14.4684 235.441V235.485C14.469 237.723 16.2751 239.555 18.5194 239.579L25.0952 239.651H25.0958H25.1276C25.3696 239.651 25.598 239.623 25.8141 239.586L25.7502 239.208L25.3741 239.287C26.1158 242.801 27.4517 246.213 29.3831 249.368L29.7108 249.167L29.495 248.849C29.3059 248.978 29.1182 249.123 28.9421 249.294L24.2208 253.872C23.394 254.673 22.9777 255.744 22.978 256.812C22.9777 257.838 23.3616 258.869 24.1313 259.662L28.7085 264.384C29.51 265.211 30.5814 265.627 31.6497 265.626C32.6755 265.627 33.706 265.243 34.4994 264.474L39.2393 259.878L39.221 259.896C39.3966 259.725 39.5482 259.543 39.6827 259.358L39.3717 259.132L39.1613 259.453C42.3408 261.538 45.8133 263.001 49.4068 263.842L49.4945 263.468L49.1169 263.396C49.0746 263.62 49.0401 263.858 49.0374 264.114L48.9665 270.69L48.9662 270.736C48.9656 271.81 49.381 272.83 50.1348 273.599C50.8976 274.379 51.926 274.818 53.0172 274.829L59.5928 274.9L59.5974 274.515H59.2132V274.516V274.896L59.5936 274.9H59.6358C60.7409 274.9 61.7484 274.458 62.4861 273.744C63.243 273.012 63.7195 271.985 63.7318 270.849L63.8033 264.273V264.242C63.8033 263.999 63.7748 263.771 63.7387 263.555L63.3599 263.618L63.439 263.994C66.9532 263.253 70.366 261.916 73.5198 259.985L73.3193 259.658L73.0019 259.874C73.1302 260.063 73.2755 260.25 73.4461 260.426L78.0238 265.148C78.8254 265.975 79.8966 266.391 80.9648 266.39C81.9907 266.391 83.0212 266.007 83.8151 265.237L88.5366 260.66C89.3634 259.858 89.7799 258.788 89.7792 257.719C89.7799 256.693 89.3957 255.663 88.6257 254.869L84.0487 250.147C83.8781 249.971 83.6952 249.82 83.51 249.685L83.284 249.997L83.6053 250.207C85.6901 247.028 87.1541 243.555 87.994 239.961L87.6198 239.874L87.5475 240.252C87.7727 240.295 88.0117 240.328 88.2668 240.331L94.8419 240.402H94.888C95.9915 240.403 96.999 239.961 97.7359 239.246C98.4921 238.513 98.9693 237.487 98.9816 236.352L99.0523 229.776L99.0531 229.731C99.0523 227.493 97.2457 225.661 95.0017 225.636L88.4259 225.566H88.4267L88.3921 225.565C88.1539 225.565 87.9256 225.591 87.7074 225.627L87.7704 226.006L88.1462 225.927C87.4038 222.414 86.069 219.002 84.1378 215.849L83.8097 216.049L84.0256 216.368C84.2154 216.239 84.4022 216.093 84.5789 215.922L89.3004 211.344C90.1273 210.543 90.5438 209.472 90.543 208.404C90.5438 207.378 90.1596 206.347 89.3896 205.554L84.8125 200.833C84.011 200.005 82.9398 199.589 81.8716 199.59C80.8457 199.589 79.8152 199.973 79.0221 200.742L79.2895 201.018L79.557 201.294C80.2025 200.668 81.0355 200.358 81.8716 200.358C82.7423 200.358 83.6083 200.695 84.2608 201.368L88.8378 206.088C89.4641 206.735 89.7738 207.568 89.7746 208.404C89.7738 209.275 89.4372 210.141 88.7656 210.792L84.0441 215.37C83.9057 215.504 83.7551 215.622 83.5945 215.731L83.2902 215.936L83.4823 216.25C85.3666 219.327 86.6699 222.657 87.3946 226.086L87.4699 226.445L87.8326 226.385C88.0232 226.354 88.2092 226.334 88.3921 226.334H88.4174V226.335L94.9933 226.405C96.8138 226.424 98.2854 227.915 98.2846 229.731L98.2839 229.767L98.2132 236.343C98.2032 237.266 97.8174 238.097 97.2011 238.695C96.5994 239.276 95.7848 239.634 94.888 239.634H94.8503L88.2745 239.562C88.0832 239.561 87.891 239.535 87.692 239.497L87.3293 239.427L87.2455 239.787C86.4256 243.295 84.9977 246.683 82.9628 249.785L82.7623 250.092L83.0581 250.307C83.2157 250.422 83.3632 250.544 83.4969 250.683L88.0739 255.404C88.7002 256.05 89.0107 256.883 89.0107 257.719C89.0107 258.59 88.6741 259.456 88.0017 260.108L83.2802 264.685C82.6339 265.311 81.8009 265.622 80.9648 265.622C80.0941 265.622 79.2281 265.285 78.5756 264.613L73.9986 259.891V259.892C73.8649 259.753 73.7465 259.602 73.6366 259.442L73.4307 259.139L73.1187 259.33C70.0402 261.215 66.7104 262.518 63.2807 263.243L62.9203 263.319L62.981 263.682C63.0133 263.874 63.0348 264.059 63.0348 264.242V264.266L62.9633 270.841C62.9533 271.764 62.5676 272.594 61.9512 273.191C61.3495 273.775 60.5342 274.132 59.6358 274.132H59.6005L59.5974 274.516H59.9816V274.515V274.135L53.0253 274.06C52.1343 274.05 51.3079 273.697 50.6838 273.061C50.069 272.432 49.7353 271.613 49.7347 270.736L49.735 270.698L49.8058 264.123C49.8076 263.931 49.834 263.739 49.8718 263.539L49.9406 263.177L49.5819 263.094C46.0739 262.273 42.6854 260.845 39.5824 258.811L39.2759 258.61L39.0607 258.907C38.9469 259.064 38.8238 259.211 38.6857 259.344L33.9645 263.922C33.3188 264.548 32.4858 264.858 31.6497 264.858C30.7789 264.858 29.9123 264.521 29.2599 263.849L24.6831 259.128C24.0572 258.481 23.7468 257.648 23.7465 256.812C23.7471 255.941 24.0836 255.075 24.7557 254.424L29.4773 249.846H29.4776C29.6148 249.712 29.7658 249.594 29.9264 249.485L30.2298 249.279L30.0383 248.966C28.1535 245.888 26.8501 242.559 26.126 239.128L26.0498 238.767L25.6859 238.829C25.4957 238.861 25.3111 238.882 25.1276 238.882H25.1033L18.5278 238.811C16.7066 238.792 15.2359 237.301 15.2369 235.485V235.449L14.8526 235.445V235.829H14.8532H15.2332L15.3082 228.874C15.3182 227.982 15.6709 227.155 16.3079 226.531L16.3118 226.527L16.3271 226.512L16.0515 226.244L16.319 226.52C16.9461 225.912 17.7617 225.582 18.634 225.582H18.6701L25.2462 225.654H25.2465C25.4371 225.655 25.6313 225.681 25.8309 225.718L26.1917 225.785L26.2755 225.427C27.0959 221.92 28.5236 218.532 30.5577 215.43L30.7588 215.123L30.4616 214.908C30.3049 214.794 30.1578 214.672 30.024 214.533L25.4467 209.812C24.8209 209.166 24.5105 208.333 24.5102 207.497C24.5105 206.626 24.8472 205.76 25.5196 205.108L30.241 200.53C30.8867 199.905 31.7197 199.594 32.5557 199.594C33.4268 199.594 34.2928 199.931 34.9452 200.604L39.5224 205.325H39.5227C39.6562 205.462 39.7745 205.613 39.8835 205.774L40.0894 206.078L40.4025 205.886C43.4797 204.002 46.8091 202.698 50.2384 201.974L50.5977 201.899L50.538 201.536C50.5068 201.346 50.4866 201.161 50.4866 200.98L50.4869 200.951L50.5578 194.375C50.5764 192.554 52.0677 191.083 53.8838 191.084H53.9195H53.9199L60.495 191.156C62.3163 191.175 63.7871 192.666 63.7864 194.482V194.518L63.7149 201.093C63.7134 201.285 63.6888 201.479 63.6511 201.678L63.5827 202.039L63.9408 202.123C67.4481 202.944 70.8356 204.372 73.9379 206.406L74.2453 206.607L74.4604 206.31C74.5734 206.153 74.6971 206.006 74.8355 205.872L79.557 201.294L79.2895 201.018Z" fill="#212C5A"/>
<path d="M203.671 254.867H132.442V289.369H203.671V254.867Z" fill="#E31293"/>
<path d="M284.917 96.8011V249.335C284.917 254.234 280.917 258.206 275.977 258.206H60.1367C55.2024 258.206 51.196 254.234 51.196 249.335V96.8011C51.196 91.9017 55.2024 87.9236 60.1367 87.9236H275.977C280.917 87.9236 284.917 91.9017 284.917 96.8011Z" fill="#EE1A98"/>
<path d="M167.5 251.528C164.734 251.528 162.492 249.535 162.492 247.076C162.492 244.618 164.734 242.625 167.5 242.625C170.265 242.625 172.508 244.618 172.508 247.076C172.508 249.535 170.265 251.528 167.5 251.528Z" fill="#F472BF"/>
<path d="M281.578 237.06V97.7931C281.578 93.5719 278.259 90.1495 274.163 90.1495H60.8376C56.7422 90.1495 53.4219 93.5719 53.4219 97.7931V237.06H281.578Z" fill="#DAC9E9"/>
<path d="M217.027 292.708H119.086V292.456C119.086 288.292 122.232 284.917 126.112 284.917H210.001C213.88 284.917 217.027 288.292 217.027 292.456V292.708Z" fill="#EE1A98"/>
<path d="M72.3422 88.7986C72.3422 81.8202 67.2351 76.0778 60.6625 75.3014C60.713 74.8458 60.7452 74.3839 60.7452 73.9133C60.7452 67.2226 55.4804 61.7994 48.9852 61.7994C47.2453 61.7994 45.5991 62.1991 44.1132 62.8975C40.9817 57.8692 35.5116 54.5349 29.2822 54.5349C19.5548 54.5349 11.6694 62.6578 11.6694 72.6781C11.6694 73.5601 11.7337 74.4272 11.8518 75.2754C5.19513 75.969 0 81.7587 0 88.7986C0 96.3059 5.90809 102.392 13.196 102.392H59.8001V102.357C66.7821 102.003 72.3422 96.0781 72.3422 88.7986Z" fill="#A08BCD"/>
<path d="M44.7312 111.776V91.2625H27.6108V111.776H22.2592L36.1708 124.651L50.0831 111.776H44.7312Z" fill="#FAB743"/>
<path d="M231.193 97.9402H189.505C185.649 97.9402 182.525 94.9407 182.525 91.2394V77.93C182.525 74.2295 185.649 71.2292 189.505 71.2292H231.193C235.048 71.2292 238.173 74.2295 238.173 77.93V91.2394C238.173 94.9407 235.048 97.9402 231.193 97.9402Z" fill="#4746A4"/>
<path d="M77.4652 298.272H34.9437C31.0118 298.272 27.824 295.023 27.824 291.013V276.595C27.824 272.586 31.0118 269.336 34.9437 269.336H77.4652C81.3978 269.336 84.5848 272.586 84.5848 276.595V291.013C84.5848 295.023 81.3978 298.272 77.4652 298.272Z" fill="#4746A4"/>
<path d="M96.6647 181.412H55.8105C52.0328 181.412 48.9701 178.162 48.9701 174.153V159.734C48.9701 155.725 52.0328 152.475 55.8105 152.475H96.6647C100.443 152.475 103.505 155.725 103.505 159.734V174.153C103.505 178.162 100.443 181.412 96.6647 181.412Z" fill="#4746A4"/>
<path d="M241.999 269.336H239.912C239.566 269.336 239.286 269.086 239.286 268.779C239.286 268.472 239.566 268.223 239.912 268.223H241.999C242.344 268.223 242.625 268.472 242.625 268.779C242.625 269.086 242.344 269.336 241.999 269.336Z" fill="#A08BCD"/>
<path d="M305.481 203.273C305.158 203.273 304.897 203.007 304.897 202.678V198.702C304.897 198.373 305.158 198.106 305.481 198.106C305.803 198.106 306.063 198.373 306.063 198.702V202.678C306.063 203.007 305.803 203.273 305.481 203.273ZM305.481 211.223C305.158 211.223 304.897 210.957 304.897 210.627V206.652C304.897 206.323 305.158 206.057 305.481 206.057C305.803 206.057 306.063 206.323 306.063 206.652V210.627C306.063 210.957 305.803 211.223 305.481 211.223ZM305.481 219.173C305.158 219.173 304.897 218.907 304.897 218.578V214.603C304.897 214.273 305.158 214.006 305.481 214.006C305.803 214.006 306.063 214.273 306.063 214.603V218.578C306.063 218.907 305.803 219.173 305.481 219.173ZM305.481 227.123C305.158 227.123 304.897 226.857 304.897 226.528V222.552C304.897 222.223 305.158 221.956 305.481 221.956C305.803 221.956 306.063 222.223 306.063 222.552V226.528C306.063 226.857 305.803 227.123 305.481 227.123ZM305.481 235.074C305.158 235.074 304.897 234.806 304.897 234.477V230.503C304.897 230.174 305.158 229.906 305.481 229.906C305.803 229.906 306.063 230.174 306.063 230.503V234.477C306.063 234.806 305.803 235.074 305.481 235.074ZM305.481 243.023C305.158 243.023 304.897 242.756 304.897 242.427V238.453C304.897 238.123 305.158 237.856 305.481 237.856C305.803 237.856 306.063 238.123 306.063 238.453V242.427C306.063 242.756 305.803 243.023 305.481 243.023ZM305.481 250.974C305.158 250.974 304.897 250.706 304.897 250.378V246.402C304.897 246.073 305.158 245.806 305.481 245.806C305.803 245.806 306.063 246.073 306.063 246.402V250.378C306.063 250.706 305.803 250.974 305.481 250.974ZM304.404 258.786C304.334 258.786 304.263 258.774 304.194 258.747C303.894 258.627 303.744 258.282 303.86 257.976C304.31 256.785 304.618 255.539 304.773 254.271C304.813 253.945 305.095 253.712 305.425 253.755C305.744 253.796 305.971 254.094 305.93 254.421C305.763 255.784 305.433 257.124 304.948 258.404C304.859 258.641 304.639 258.786 304.404 258.786ZM299.997 265.238C299.834 265.238 299.673 265.17 299.558 265.035C299.346 264.788 299.369 264.411 299.611 264.194C300.55 263.35 301.389 262.392 302.104 261.346C302.288 261.077 302.651 261.01 302.917 261.199C303.18 261.387 303.244 261.76 303.06 262.029C302.291 263.153 301.39 264.183 300.38 265.09C300.27 265.19 300.133 265.238 299.997 265.238ZM293.166 268.873C292.903 268.873 292.665 268.69 292.6 268.417C292.524 268.097 292.717 267.776 293.029 267.697C294.243 267.397 295.421 266.946 296.527 266.355C296.814 266.202 297.165 266.316 297.314 266.607C297.463 266.899 297.352 267.259 297.067 267.412C295.875 268.047 294.61 268.533 293.303 268.856L293.166 268.873ZM250.435 269.336H246.547C246.225 269.336 245.963 269.068 245.963 268.739C245.963 268.41 246.225 268.143 246.547 268.143H250.435C250.756 268.143 251.018 268.41 251.018 268.739C251.018 269.068 250.756 269.336 250.435 269.336ZM258.211 269.336H254.323C254.001 269.336 253.74 269.068 253.74 268.739C253.74 268.41 254.001 268.143 254.323 268.143H258.211C258.532 268.143 258.794 268.41 258.794 268.739C258.794 269.068 258.532 269.336 258.211 269.336ZM265.987 269.336H262.099C261.777 269.336 261.515 269.068 261.515 268.739C261.515 268.41 261.777 268.143 262.099 268.143H265.987C266.309 268.143 266.57 268.41 266.57 268.739C266.57 269.068 266.309 269.336 265.987 269.336ZM273.764 269.336H269.876C269.554 269.336 269.292 269.068 269.292 268.739C269.292 268.41 269.554 268.143 269.876 268.143H273.764C274.085 268.143 274.346 268.41 274.346 268.739C274.346 269.068 274.085 269.336 273.764 269.336ZM281.539 269.336H277.652C277.33 269.336 277.068 269.068 277.068 268.739C277.068 268.41 277.33 268.143 277.652 268.143H281.539C281.861 268.143 282.122 268.41 282.122 268.739C282.122 269.068 281.861 269.336 281.539 269.336ZM289.315 269.336H285.427C285.105 269.336 284.844 269.068 284.844 268.739C284.844 268.41 285.105 268.143 285.427 268.143H289.315C289.637 268.143 289.899 268.41 289.899 268.739C289.899 269.068 289.637 269.336 289.315 269.336Z" fill="#A08BCD"/>
<path d="M305.773 195.88C305.613 195.88 305.483 195.6 305.483 195.255V193.794H305.24C305.08 193.794 304.95 193.513 304.95 193.168C304.95 192.823 305.08 192.542 305.24 192.542H305.773C305.934 192.542 306.063 192.823 306.063 193.168V195.255C306.063 195.6 305.934 195.88 305.773 195.88Z" fill="#A08BCD"/>
<path d="M287.137 132.442H235.954C232.877 132.442 230.382 134.969 230.382 138.088V245.883C230.382 249.001 232.877 251.528 235.954 251.528H287.137C290.213 251.528 292.708 249.001 292.708 245.883V138.088C292.708 134.969 290.213 132.442 287.137 132.442Z" fill="#A08BCD"/>
<path d="M274.012 139.12H245.739C245.248 139.12 244.85 138.886 244.85 138.597V138.529C244.85 138.241 245.248 138.007 245.739 138.007H274.012C274.502 138.007 274.9 138.241 274.9 138.529V138.597C274.9 138.886 274.502 139.12 274.012 139.12Z" fill="#212C5A"/>
<path d="M279.352 138.563C279.352 138.87 278.854 139.12 278.239 139.12C277.625 139.12 277.126 138.87 277.126 138.563C277.126 138.256 277.625 138.007 278.239 138.007C278.854 138.007 279.352 138.256 279.352 138.563Z" fill="#212C5A"/>
<path d="M290.482 178.073H233.721V144.684H290.482V178.073Z" fill="white"/>
<path d="M272.645 158.714L268.571 163.344L258.027 151.362L240.399 171.395H261.486H275.655H283.804L272.645 158.714Z" fill="#FAB743"/>
<path d="M260.432 240.399H233.721V224.817H260.432V240.399Z" fill="white"/>
<path d="M251.656 230.311L249.671 232.369L244.535 227.043L235.947 235.947H246.22H253.123H257.093L251.656 230.311Z" fill="#FAB743"/>
<path d="M233.721 189.203H260.432V188.09H233.721V189.203Z" fill="#5C58B1"/>
<path d="M233.721 184.751H260.432V183.638H233.721V184.751Z" fill="#5C58B1"/>
<path d="M233.721 191.429H250.415V190.316H233.721V191.429Z" fill="#5C58B1"/>
<path d="M252.641 191.429H260.432V190.316H252.641V191.429Z" fill="#5C58B1"/>
<path d="M233.721 194.767H257.093V192.542H233.721V194.767Z" fill="#5C58B1"/>
<path d="M233.721 198.106H241.512V196.993H233.721V198.106Z" fill="#5C58B1"/>
<path d="M242.625 198.106H249.302V196.993H242.625V198.106Z" fill="#5C58B1"/>
<path d="M262.658 210.349H290.482V209.236H262.658V210.349Z" fill="#5C58B1"/>
<path d="M262.658 205.897H290.482V204.784H262.658V205.897Z" fill="#5C58B1"/>
<path d="M262.658 212.575H279.352V211.462H262.658V212.575Z" fill="#5C58B1"/>
<path d="M281.578 212.575H290.482V211.462H281.578V212.575Z" fill="#5C58B1"/>
<path d="M262.658 214.801H286.03V213.688H262.658V214.801Z" fill="#5C58B1"/>
<path d="M262.658 219.253H271.561V218.14H262.658V219.253Z" fill="#5C58B1"/>
<path d="M273.787 219.253H278.239V218.14H273.787V219.253Z" fill="#5C58B1"/>
<path d="M262.658 189.203H290.482V188.09H262.658V189.203Z" fill="#5C58B1"/>
<path d="M262.658 184.751H290.482V183.638H262.658V184.751Z" fill="#5C58B1"/>
<path d="M262.658 191.429H279.352V190.316H262.658V191.429Z" fill="#5C58B1"/>
<path d="M281.578 191.429H290.482V190.316H281.578V191.429Z" fill="#5C58B1"/>
<path d="M262.658 194.767H290.482V192.542H262.658V194.767Z" fill="#5C58B1"/>
<path d="M262.658 198.106H271.561V196.993H262.658V198.106Z" fill="#5C58B1"/>
<path d="M273.787 198.106H290.482V196.993H273.787V198.106Z" fill="#5C58B1"/>
<path d="M233.721 210.349H260.432V209.236H233.721V210.349Z" fill="#5C58B1"/>
<path d="M233.721 205.897H260.432V204.784H233.721V205.897Z" fill="#5C58B1"/>
<path d="M233.721 212.575H260.432V211.462H233.721V212.575Z" fill="#5C58B1"/>
<path d="M233.721 214.801H260.432V213.688H233.721V214.801Z" fill="#5C58B1"/>
<path d="M233.721 219.253H260.432V218.14H233.721V219.253Z" fill="#5C58B1"/>
<path d="M262.658 229.269H290.482V227.043H262.658V229.269Z" fill="#5C58B1"/>
<path d="M262.658 225.93H290.482V224.817H262.658V225.93Z" fill="#5C58B1"/>
<path d="M273.787 232.608H290.482V231.495H273.787V232.608Z" fill="#5C58B1"/>
<path d="M262.658 232.608H271.561V231.495H262.658V232.608Z" fill="#5C58B1"/>
<path d="M262.658 234.834H283.804V233.721H262.658V234.834Z" fill="#5C58B1"/>
<path d="M284.917 234.834H290.482V233.721H284.917V234.834Z" fill="#5C58B1"/>
<path d="M270.448 239.286H290.482V235.947H270.448V239.286Z" fill="#5C58B1"/>
<path d="M262.658 239.286H269.336V235.947H262.658V239.286Z" fill="#5C58B1"/>
<path d="M242.461 279.352H201.608C197.829 279.352 194.767 276.227 194.767 272.372V258.508C194.767 254.653 197.829 251.528 201.608 251.528H242.461C246.24 251.528 249.302 254.653 249.302 258.508V272.372C249.302 276.227 246.24 279.352 242.461 279.352Z" fill="#4746A4"/>
<path d="M308.289 233.721C308.289 234.95 307.292 235.947 306.063 235.947C304.834 235.947 303.837 234.95 303.837 233.721C303.837 232.492 304.834 231.495 306.063 231.495C307.292 231.495 308.289 232.492 308.289 233.721Z" fill="#A08BCD"/>
<path d="M305.506 228.838C303.083 228.838 301.112 231.028 301.112 233.721C301.112 236.414 303.083 238.604 305.506 238.604C307.93 238.604 309.902 236.414 309.902 233.721C309.902 231.028 307.93 228.838 305.506 228.838ZM305.506 239.286C302.746 239.286 300.498 236.79 300.498 233.721C300.498 230.653 302.746 228.156 305.506 228.156C308.268 228.156 310.515 230.653 310.515 233.721C310.515 236.79 308.268 239.286 305.506 239.286Z" fill="#A08BCD"/>
<path d="M328.02 195.88H286.332C282.477 195.88 279.352 192.755 279.352 188.901V175.036C279.352 171.182 282.477 168.056 286.332 168.056H328.02C331.875 168.056 335 171.182 335 175.036V188.901C335 192.755 331.875 195.88 328.02 195.88Z" fill="#4746A4"/>
<path d="M179.186 202.558H161.379V200.332H179.186V202.558Z" fill="#212C5A"/>
<path d="M223.704 202.558H183.638V200.332H223.704V202.558Z" fill="#212C5A"/>
<path d="M203.162 214.801C196.282 214.801 189.388 214.789 182.525 214.766L182.529 212.575C196.252 212.62 210.104 212.62 223.701 212.575L223.704 214.766C216.905 214.789 210.042 214.801 203.162 214.801Z" fill="#212C5A"/>
<path d="M223.704 209.236H175.847V207.01H223.704V209.236Z" fill="#212C5A"/>
<path d="M223.704 220.365H173.621V219.252H223.704V220.365Z" fill="#212C5A"/>
<path d="M223.704 227.043H166.943V224.817H223.704V227.043Z" fill="#212C5A"/>
<path d="M94.6013 112.409H67.8904V110.183H94.6013V112.409Z" fill="#A08BCD"/>
<path d="M158.04 112.409H130.216V110.183H158.04V112.409Z" fill="#A08BCD"/>
<path d="M158.04 117.973H138.007V116.86H158.04V117.973Z" fill="#FAB743"/>
<path d="M158.04 130.216H130.216V127.99H158.04V130.216Z" fill="#FAB743"/>
<path d="M158.04 136.894H124.651V134.668H158.04V136.894Z" fill="#FAB743"/>
<path d="M158.04 142.458H115.748V141.346H158.04V142.458Z" fill="#FAB743"/>
<path d="M125.764 112.409H99.0531V110.183H125.764V112.409Z" fill="#FAB743"/>
<path d="M136.4 124.651C132.305 124.651 128.196 124.647 119.977 124.639L114.635 124.634L114.636 123.538L119.98 123.543C136.414 123.559 136.415 123.559 152.733 123.543L158.04 123.538V124.634L152.735 124.639C144.575 124.647 140.495 124.651 136.4 124.651Z" fill="#FAB743"/>
<path d="M88.433 124.651C81.5535 124.651 74.6901 124.646 67.8904 124.634L67.8942 123.538C81.4905 123.561 95.3428 123.561 109.067 123.538L109.07 124.634C102.207 124.646 95.3117 124.651 88.433 124.651Z" fill="#A08BCD"/>
<path d="M133.555 117.973H67.8904V116.86H133.555V117.973Z" fill="#A08BCD"/>
<path d="M111.296 142.458H67.8904V141.346H111.296V142.458Z" fill="#A08BCD"/>
<path d="M125.764 130.216H67.8904V127.99H125.764V130.216Z" fill="#A08BCD"/>
<path d="M121.312 136.894H67.8904V134.668H121.312V136.894Z" fill="#A08BCD"/>
<path d="M63.4386 111.295C63.4386 111.911 62.9404 112.409 62.326 112.409C61.7108 112.409 61.2126 111.911 61.2126 111.295C61.2126 110.681 61.7108 110.183 62.326 110.183C62.9404 110.183 63.4386 110.681 63.4386 111.295Z" fill="#EE1A98"/>
<path d="M63.4386 117.417C63.4386 117.724 62.9404 117.973 62.326 117.973C61.7108 117.973 61.2126 117.724 61.2126 117.417C61.2126 117.11 61.7108 116.86 62.326 116.86C62.9404 116.86 63.4386 117.11 63.4386 117.417Z" fill="#EE1A98"/>
<path d="M63.4386 123.538C63.4386 124.153 62.9404 124.651 62.326 124.651C61.7108 124.651 61.2126 124.153 61.2126 123.538C61.2126 122.923 61.7108 122.425 62.326 122.425C62.9404 122.425 63.4386 122.923 63.4386 123.538Z" fill="#EE1A98"/>
<path d="M63.4386 129.659C63.4386 130.581 62.9404 131.329 62.326 131.329C61.7108 131.329 61.2126 130.581 61.2126 129.659C61.2126 128.737 61.7108 127.99 62.326 127.99C62.9404 127.99 63.4386 128.737 63.4386 129.659Z" fill="#EE1A98"/>
<path d="M63.4386 135.781C63.4386 136.396 62.9404 136.894 62.326 136.894C61.7108 136.894 61.2126 136.396 61.2126 135.781C61.2126 135.167 61.7108 134.668 62.326 134.668C62.9404 134.668 63.4386 135.167 63.4386 135.781Z" fill="#EE1A98"/>
<path d="M63.4386 141.902C63.4386 142.209 62.9404 142.458 62.326 142.458C61.7108 142.458 61.2126 142.209 61.2126 141.902C61.2126 141.595 61.7108 141.346 62.326 141.346C62.9404 141.346 63.4386 141.595 63.4386 141.902Z" fill="#EE1A98"/>
<path d="M165.274 145.797C164.967 145.797 164.718 145.622 164.718 145.405V110.575C164.718 110.358 164.967 110.183 165.274 110.183C165.582 110.183 165.831 110.358 165.831 110.575V145.405C165.831 145.622 165.582 145.797 165.274 145.797Z" fill="#EE1A98"/>
<path d="M90.2381 196.689H87.8558C87.636 196.689 87.4583 196.508 87.4583 196.284C87.4583 196.061 87.636 195.88 87.8558 195.88H90.2381C90.4578 195.88 90.6356 196.061 90.6356 196.284C90.6356 196.508 90.4578 196.689 90.2381 196.689ZM95.0041 196.689H92.6211C92.4013 196.689 92.2235 196.508 92.2235 196.284C92.2235 196.061 92.4013 195.88 92.6211 195.88H95.0041C95.2231 195.88 95.4009 196.061 95.4009 196.284C95.4009 196.508 95.2231 196.689 95.0041 196.689ZM99.7693 196.689H97.3863C97.1665 196.689 96.9888 196.508 96.9888 196.284C96.9888 196.061 97.1665 195.88 97.3863 195.88H99.7693C99.9883 195.88 100.166 196.061 100.166 196.284C100.166 196.508 99.9883 196.689 99.7693 196.689ZM84.9823 199.838C84.7625 199.838 84.5847 199.656 84.5847 199.433V199.138C84.5847 198.315 84.887 197.53 85.4353 196.926C85.5838 196.763 85.8344 196.752 85.9964 196.904C86.1576 197.055 86.1674 197.311 86.0189 197.475C85.6063 197.929 85.3791 198.519 85.3791 199.138V199.433C85.3791 199.656 85.202 199.838 84.9823 199.838ZM84.9823 204.688C84.7625 204.688 84.5847 204.507 84.5847 204.284V201.858C84.5847 201.635 84.7625 201.454 84.9823 201.454C85.202 201.454 85.3791 201.635 85.3791 201.858V204.284C85.3791 204.507 85.202 204.688 84.9823 204.688ZM84.9823 209.539C84.7625 209.539 84.5847 209.357 84.5847 209.134V206.71C84.5847 206.486 84.7625 206.305 84.9823 206.305C85.202 206.305 85.3791 206.486 85.3791 206.71V209.134C85.3791 209.357 85.202 209.539 84.9823 209.539ZM84.9823 214.389C84.7625 214.389 84.5847 214.209 84.5847 213.985V211.559C84.5847 211.336 84.7625 211.156 84.9823 211.156C85.202 211.156 85.3791 211.336 85.3791 211.559V213.985C85.3791 214.209 85.202 214.389 84.9823 214.389ZM85.046 219.235C84.863 219.235 84.6987 219.106 84.659 218.917C84.6102 218.688 84.5847 218.453 84.5847 218.221V216.411C84.5847 216.187 84.7625 216.006 84.9823 216.006C85.202 216.006 85.3791 216.187 85.3791 216.411V218.221C85.3791 218.396 85.3978 218.573 85.4346 218.745C85.4811 218.963 85.3453 219.179 85.1308 219.226L85.046 219.235ZM88.7499 221.478H87.7853C87.243 221.478 86.7067 221.338 86.2349 221.071C86.0421 220.963 85.9731 220.716 86.0796 220.521C86.1869 220.325 86.4307 220.257 86.6197 220.364C86.9737 220.564 87.3773 220.67 87.7853 220.67H88.7499C88.9697 220.67 89.1467 220.851 89.1467 221.074C89.1467 221.297 88.9697 221.478 88.7499 221.478ZM93.5152 221.478H91.1329C90.9131 221.478 90.7354 221.297 90.7354 221.074C90.7354 220.851 90.9131 220.67 91.1329 220.67H93.5152C93.7349 220.67 93.912 220.851 93.912 221.074C93.912 221.297 93.7349 221.478 93.5152 221.478ZM98.2804 221.478H95.8982C95.6784 221.478 95.5006 221.297 95.5006 221.074C95.5006 220.851 95.6784 220.67 95.8982 220.67H98.2804C98.5002 220.67 98.6772 220.851 98.6772 221.074C98.6772 221.297 98.5002 221.478 98.2804 221.478Z" fill="#212C5A"/>
<path d="M106.844 212.575H93.4884V211.462H106.844V212.575Z" fill="#212C5A"/>
<path d="M130.216 212.575H109.07V211.462H130.216V212.575Z" fill="#212C5A"/>
<path d="M130.216 227.043H116.86V224.817H130.216V227.043Z" fill="#212C5A"/>
<path d="M114.635 227.043H93.4884V224.817H114.635V227.043Z" fill="#212C5A"/>
<path d="M115.748 218.14H93.4884V214.801H115.748V218.14Z" fill="#212C5A"/>
<path d="M130.216 218.14H119.086V214.801H130.216V218.14Z" fill="#212C5A"/>
<path d="M111.296 221.478H93.4884V220.365H111.296V221.478Z" fill="#212C5A"/>
<path d="M130.216 221.478H117.973V220.365H130.216V221.478Z" fill="#212C5A"/>
<path d="M100.166 191.429H93.4884V204.784H100.166V191.429Z" fill="#FAB743"/>
<path d="M110.183 185.864H103.505V204.784H110.183V185.864Z" fill="#EE1A98"/>
<path d="M121.312 176.96H114.635V204.784H121.312V176.96Z" fill="#4746A4"/>
<path d="M115.747 221.478H114.635V220.365H115.747V221.478Z" fill="#212C5A"/>
<path d="M223.704 190.316H172.508V133.555H223.704V190.316Z" fill="#A08BCD"/>
<path d="M211.462 145.797H175.847V144.684H211.462V145.797Z" fill="white"/>
<path d="M193.616 153.588C187.5 153.588 181.396 153.582 175.847 153.57L175.85 152.475C186.946 152.501 200.259 152.501 211.459 152.475L211.462 153.57C205.862 153.582 199.733 153.588 193.616 153.588Z" fill="white"/>
<path d="M211.462 149.136H175.847V148.023H211.462V149.136Z" fill="white"/>
<path d="M202.558 159.153H175.847V156.927H202.558V159.153Z" fill="white"/>
<path d="M211.462 188.09H175.847V185.864H211.462V188.09Z" fill="white"/>
<path d="M211.459 178.073C200.258 178.048 186.946 178.048 175.85 178.073L175.847 176.979C186.946 176.954 200.26 176.954 211.462 176.979L211.459 178.073Z" fill="white"/>
<path d="M211.462 182.525H175.847V181.412H211.462V182.525Z" fill="white"/>
<path d="M202.558 174.734H175.847V173.621H202.558V174.734Z" fill="white"/>
<path d="M173.295 190.631H224.029V133.239H173.295V190.631ZM224.817 191.429H172.508V132.442H224.817V191.429Z" fill="#4746A4"/>
<path d="M223.704 133.555H172.508V140.233H223.704V133.555Z" fill="#4746A4"/>
<path d="M208.725 170.282C208.605 170.282 208.485 170.229 208.387 170.122L204.956 166.311C204.847 166.19 204.784 166.014 204.784 165.831C204.784 165.647 204.847 165.472 204.956 165.349L208.387 161.539C208.598 161.306 208.921 161.329 209.109 161.596C209.294 161.861 209.275 162.266 209.063 162.502L206.066 165.831L209.063 169.16C209.275 169.395 209.294 169.8 209.109 170.066C209.008 170.21 208.867 170.282 208.725 170.282Z" fill="white"/>
<path d="M214.326 170.282C214.149 170.282 213.973 170.21 213.847 170.066C213.615 169.8 213.639 169.395 213.902 169.16L217.651 165.83L213.902 162.501C213.639 162.266 213.615 161.86 213.847 161.595C214.08 161.33 214.483 161.306 214.749 161.539L219.038 165.349C219.175 165.472 219.253 165.647 219.253 165.83C219.253 166.014 219.175 166.19 219.038 166.311L214.749 170.122C214.626 170.229 214.476 170.282 214.326 170.282Z" fill="white"/>
<path d="M177.5 136.894L179.074 135.318C179.223 135.169 179.223 134.928 179.074 134.779C178.926 134.631 178.684 134.631 178.536 134.779L176.961 136.355L175.385 134.779C175.237 134.631 174.995 134.631 174.846 134.779C174.697 134.928 174.697 135.169 174.846 135.318L176.422 136.894L174.846 138.469C174.697 138.618 174.697 138.859 174.846 139.008C174.921 139.083 175.019 139.12 175.117 139.12C175.213 139.12 175.312 139.083 175.385 139.008L176.961 137.432L178.536 139.008C178.61 139.083 178.708 139.12 178.805 139.12C178.903 139.12 179 139.083 179.074 139.008C179.223 138.859 179.223 138.618 179.074 138.469L177.5 136.894Z" fill="white"/>
<path d="M183.081 135.381C182.455 135.381 181.947 136.059 181.947 136.894C181.947 137.728 182.455 138.407 183.081 138.407C183.708 138.407 184.216 137.728 184.216 136.894C184.216 136.059 183.708 135.381 183.081 135.381ZM183.081 139.12C182.161 139.12 181.412 138.122 181.412 136.894C181.412 135.667 182.161 134.668 183.081 134.668C184.002 134.668 184.751 135.667 184.751 136.894C184.751 138.122 184.002 139.12 183.081 139.12Z" fill="white"/>
<path d="M190.026 139.12H187.266C187.106 139.12 186.977 138.87 186.977 138.563C186.977 138.256 187.106 138.007 187.266 138.007H190.026C190.186 138.007 190.316 138.256 190.316 138.563C190.316 138.87 190.186 139.12 190.026 139.12Z" fill="white"/>
<path d="M135.172 83.05C128.472 85.2089 121.296 81.4127 119.176 74.5885C117.057 67.7628 120.784 60.4544 127.485 58.2948C134.186 56.1367 141.361 59.9329 143.482 66.7579C145.601 73.5828 141.873 80.892 135.172 83.05ZM156.396 57.13L151.811 58.6067C151.658 58.6556 151.514 58.72 151.376 58.793C149.996 56.3742 148.225 54.2689 146.174 52.5338C146.27 52.4049 146.359 52.2699 146.434 52.1233L148.631 47.766C149.313 46.4103 148.787 44.7404 147.456 44.0443L143.177 41.8071C141.847 41.111 140.207 41.6472 139.524 43.0037L137.327 47.3609C137.253 47.5076 137.198 47.6597 137.151 47.8133C134.641 47.146 132.004 46.9023 129.342 47.1359C129.322 46.9791 129.291 46.8232 129.243 46.668L127.792 41.9972C127.341 40.5438 125.813 39.7359 124.386 40.1953L119.801 41.6728C118.374 42.1322 117.58 43.6889 118.031 45.1423L119.482 49.8123C119.531 49.9675 119.593 50.1134 119.665 50.2539C117.291 51.66 115.224 53.4634 113.519 55.5524C113.393 55.4546 113.26 55.3638 113.116 55.2886L108.838 53.0514C108.197 52.7161 107.468 52.6533 106.78 52.8744L106.768 52.8783C106.078 53.1049 105.516 53.5907 105.185 54.2479L102.988 58.6052C102.304 59.9609 102.831 61.6301 104.162 62.3269L108.44 64.5641C108.585 64.6394 108.735 64.6953 108.885 64.7418C108.229 67.2987 107.99 69.9845 108.22 72.6966C108.066 72.7168 107.912 72.7486 107.76 72.7975L103.175 74.275C101.748 74.7352 100.954 76.2911 101.406 77.7445L102.856 82.4145C103.308 83.8679 104.835 84.6757 106.262 84.2164L110.847 82.7388C111 82.69 111.144 82.6256 111.281 82.5534C112.662 84.9714 114.434 87.0775 116.485 88.8126C116.389 88.9406 116.299 89.0749 116.224 89.2223L114.027 93.5796C113.696 94.2361 113.636 94.9857 113.858 95.688C114.08 96.391 114.558 96.9645 115.202 97.3013L119.48 99.5385C120.142 99.8846 120.879 99.9257 121.538 99.7139C122.204 99.4989 122.79 99.024 123.134 98.3419L125.331 93.9847C125.406 93.8372 125.459 93.6844 125.505 93.5315C128.016 94.1996 130.653 94.4425 133.316 94.2097C133.336 94.3657 133.367 94.5224 133.415 94.6776L134.866 99.3484C135.317 100.801 136.845 101.61 138.272 101.15L142.857 99.6728C144.284 99.2126 145.077 97.6575 144.626 96.204L143.176 91.5333C143.127 91.3781 143.065 91.2314 142.993 91.0917C145.367 89.6848 147.435 87.8806 149.139 85.7916C149.264 85.8894 149.396 85.981 149.541 86.057L153.819 88.295C154.481 88.6403 155.219 88.6822 155.877 88.4696C156.544 88.2547 157.13 87.7805 157.473 87.0984L159.67 82.7404C160.354 81.3847 159.827 79.7148 158.496 79.0195L154.217 76.7823C154.074 76.707 153.924 76.6496 153.773 76.6022C154.428 74.0453 154.667 71.3603 154.438 68.6498C154.592 68.6288 154.745 68.597 154.898 68.5473L159.483 67.0706C160.91 66.6112 161.703 65.0545 161.252 63.6011L159.802 58.9311C159.351 57.4777 157.823 56.6698 156.396 57.13Z" fill="#212C5A"/>
<path d="M154.822 183.858C153.166 187.915 148.519 189.867 144.464 188.211C140.408 186.555 138.456 181.908 140.111 177.852C141.768 173.797 146.414 171.845 150.47 173.501C154.525 175.157 156.478 179.804 154.822 183.858ZM151.09 163.544L149.956 166.319C149.918 166.411 149.891 166.506 149.871 166.6C148.183 166.315 146.486 166.339 144.853 166.643C144.83 166.546 144.802 166.451 144.763 166.358L143.589 163.599C143.223 162.742 142.228 162.34 141.37 162.706L138.612 163.88C137.753 164.245 137.352 165.24 137.718 166.099L138.892 168.856C138.931 168.949 138.98 169.036 139.035 169.118C137.719 170.06 136.554 171.228 135.603 172.594C135.521 172.543 135.435 172.497 135.342 172.459L132.567 171.326C131.704 170.974 130.714 171.389 130.362 172.253L129.228 175.028C128.876 175.891 129.292 176.881 130.155 177.234L132.931 178.367C133.023 178.404 133.117 178.432 133.211 178.452C132.926 180.141 132.951 181.836 133.254 183.47C133.158 183.493 133.062 183.521 132.969 183.56L130.211 184.734C129.797 184.91 129.477 185.236 129.307 185.651L129.304 185.659C129.136 186.078 129.14 186.537 129.317 186.953L130.491 189.711C130.856 190.569 131.852 190.97 132.71 190.604L135.468 189.431C135.562 189.391 135.647 189.342 135.729 189.287C136.67 190.602 137.838 191.768 139.206 192.72C139.154 192.801 139.108 192.888 139.07 192.98L137.937 195.755C137.584 196.619 138 197.608 138.863 197.961L141.639 199.093C142.503 199.447 143.492 199.031 143.845 198.167L144.978 195.392C145.015 195.3 145.042 195.206 145.062 195.111C146.751 195.397 148.448 195.373 150.083 195.069C150.104 195.164 150.131 195.26 150.171 195.353L151.345 198.112C151.522 198.528 151.85 198.849 152.269 199.018C152.689 199.188 153.149 199.182 153.564 199.005L156.323 197.832C156.749 197.65 157.063 197.313 157.225 196.914C157.39 196.511 157.4 196.044 157.216 195.613L156.042 192.855C156.003 192.761 155.952 192.675 155.898 192.594C157.214 191.652 158.38 190.483 159.331 189.118C159.413 189.168 159.499 189.215 159.591 189.252L162.366 190.385C163.231 190.738 164.219 190.322 164.572 189.459L165.705 186.684C166.058 185.821 165.642 184.831 164.779 184.478L162.004 183.345C161.911 183.307 161.817 183.28 161.723 183.259C162.007 181.571 161.983 179.875 161.68 178.24C161.776 178.219 161.871 178.191 161.965 178.151L164.723 176.977C165.15 176.795 165.463 176.459 165.626 176.06C165.79 175.657 165.8 175.19 165.617 174.758L164.443 172C164.077 171.142 163.082 170.741 162.224 171.106L159.466 172.281C159.373 172.32 159.287 172.369 159.204 172.424C158.263 171.108 157.095 169.943 155.729 168.991C155.78 168.91 155.826 168.824 155.863 168.731L156.997 165.956C157.349 165.093 156.934 164.103 156.07 163.75L153.295 162.617C152.431 162.265 151.442 162.681 151.09 163.544Z" fill="#A08BCD"/>
<path d="M129.267 164.112L129.126 163.978C128.05 165.025 126.631 165.548 125.208 165.548C123.81 165.548 122.413 165.042 121.341 164.027C120.251 162.995 119.706 161.632 119.706 160.266C119.706 158.924 120.233 157.583 121.29 156.555C122.365 155.508 123.785 154.985 125.208 154.985C126.606 154.985 128.003 155.49 129.074 156.505C130.164 157.538 130.709 158.901 130.709 160.267C130.709 161.609 130.182 162.95 129.126 163.978L129.267 164.112L129.408 164.246C130.541 163.145 131.107 161.704 131.106 160.267C131.107 158.804 130.521 157.34 129.354 156.234C128.206 155.146 126.705 154.603 125.208 154.604C123.685 154.603 122.16 155.165 121.008 156.286C119.875 157.388 119.309 158.829 119.309 160.266C119.309 161.729 119.895 163.193 121.062 164.298C122.21 165.386 123.711 165.929 125.208 165.929C126.731 165.929 128.256 165.367 129.408 164.246L129.267 164.112ZM132.35 150.189L132.209 150.056L130.69 151.532L130.551 151.695L130.705 151.815L130.81 151.654C129.747 151.017 128.593 150.578 127.404 150.338L127.363 150.524L127.559 150.555C127.571 150.486 127.579 150.412 127.579 150.333V150.318L127.555 148.252C127.546 147.509 126.915 146.911 126.142 146.91H126.125H126.127L123.975 146.934C123.201 146.943 122.579 147.548 122.578 148.29L122.579 148.307V148.306L122.603 150.371C122.603 150.456 122.615 150.534 122.629 150.607L122.824 150.573L122.779 150.388C121.627 150.647 120.512 151.093 119.487 151.726L119.595 151.886L119.747 151.763L119.612 151.609L119.606 151.602L118.068 150.145C117.793 149.884 117.433 149.754 117.075 149.754C116.711 149.754 116.345 149.889 116.07 150.157L114.558 151.628C114.287 151.891 114.151 152.237 114.151 152.58C114.151 152.929 114.292 153.281 114.571 153.546L116.11 155.003L116.279 155.136L116.405 154.989L116.237 154.888C115.573 155.908 115.116 157.017 114.866 158.158L115.06 158.198L115.093 158.01C115.018 157.997 114.939 157.989 114.857 157.989L114.842 157.99L114.847 158.18L114.844 157.99L112.693 158.013C112.319 158.016 111.965 158.16 111.703 158.416L111.7 158.42H111.699L111.698 158.42C111.439 158.675 111.296 159.012 111.296 159.368V159.386V159.384L111.32 161.45L111.519 161.448V161.258H111.518H111.317L111.319 161.45C111.329 162.193 111.96 162.79 112.732 162.79H112.748H112.748L114.901 162.767C114.99 162.767 115.073 162.754 115.147 162.741L115.111 162.554L114.917 162.597C115.187 163.703 115.652 164.773 116.311 165.757L116.478 165.654L116.35 165.509L116.19 165.639L116.183 165.644L114.665 167.121C114.393 167.384 114.258 167.73 114.258 168.074C114.258 168.423 114.398 168.774 114.677 169.039L116.209 170.49C116.484 170.75 116.843 170.881 117.201 170.88C117.566 170.881 117.932 170.745 118.207 170.477L119.725 169.001L119.865 168.838L119.711 168.717L119.606 168.879C120.669 169.516 121.823 169.954 123.013 170.195L123.053 170.008L122.858 169.977C122.845 170.046 122.836 170.122 122.836 170.204V170.217L123.034 170.213L122.836 170.215L122.861 172.281C122.865 172.642 123.016 172.983 123.285 173.236C123.55 173.484 123.902 173.622 124.272 173.621H124.289L126.441 173.598C126.827 173.594 127.178 173.44 127.429 173.195C127.682 172.951 127.837 172.613 127.837 172.243V172.227L127.813 170.161C127.812 170.075 127.8 169.996 127.786 169.924L127.59 169.96L127.636 170.145C128.788 169.886 129.903 169.44 130.928 168.807L130.82 168.647L130.668 168.77L130.804 168.924L130.81 168.931L132.348 170.388C132.623 170.648 132.982 170.779 133.34 170.779C133.704 170.779 134.07 170.644 134.346 170.375L135.858 168.905C136.128 168.642 136.264 168.296 136.264 167.953C136.264 167.603 136.124 167.252 135.844 166.987L134.306 165.53L134.137 165.396L134.01 165.544L134.179 165.644C134.842 164.624 135.3 163.516 135.55 162.373L135.356 162.335L135.323 162.522C135.396 162.534 135.475 162.543 135.56 162.543H135.57L137.723 162.52C138.11 162.516 138.461 162.361 138.712 162.116C138.964 161.872 139.12 161.534 139.12 161.165V161.149V161.149L139.096 159.083C139.086 158.34 138.456 157.742 137.683 157.742H137.666H137.667L135.513 157.765H135.515C135.428 157.766 135.346 157.776 135.268 157.791L135.305 157.978L135.498 157.934C135.228 156.828 134.764 155.759 134.104 154.775L133.937 154.879L134.065 155.024L134.226 154.894L134.233 154.888L135.751 153.412C136.022 153.148 136.158 152.803 136.158 152.459C136.158 152.109 136.017 151.758 135.739 151.494L134.206 150.043C133.932 149.783 133.572 149.652 133.214 149.652C132.85 149.652 132.485 149.787 132.209 150.056L132.35 150.189L132.492 150.323C132.69 150.129 132.951 150.033 133.214 150.033C133.473 150.033 133.73 150.126 133.928 150.314L135.459 151.765C135.661 151.955 135.761 152.206 135.761 152.459C135.761 152.708 135.664 152.954 135.469 153.144L133.963 154.608L133.809 154.733L133.676 154.841L133.771 154.982C134.405 155.928 134.852 156.957 135.111 158.022L135.155 158.199L135.342 158.165L135.521 158.146L137.673 158.123H137.683C138.238 158.122 138.693 158.554 138.699 159.087L138.723 161.153V161.152L138.723 161.165C138.723 161.431 138.612 161.671 138.43 161.848C138.247 162.026 137.997 162.136 137.719 162.139L135.567 162.162H135.569H135.56L135.388 162.146L135.2 162.117L135.161 162.295C134.92 163.395 134.48 164.461 133.842 165.442L133.75 165.585L134.04 165.814L135.565 167.258C135.766 167.449 135.867 167.7 135.867 167.953C135.867 168.2 135.77 168.447 135.575 168.637L134.063 170.107C133.864 170.301 133.603 170.397 133.34 170.398C133.081 170.397 132.824 170.304 132.627 170.116L131.102 168.671L130.971 168.524L130.859 168.396L130.713 168.487C129.727 169.095 128.655 169.525 127.545 169.774L127.36 169.816L127.396 169.996L127.417 170.166L127.44 172.231V172.23V172.243C127.44 172.509 127.329 172.75 127.147 172.927C126.965 173.104 126.715 173.214 126.436 173.217L124.285 173.24H124.272C124.004 173.24 123.755 173.143 123.563 172.963C123.368 172.78 123.261 172.538 123.257 172.277L123.233 170.21V170.209V170.204L123.25 170.039L123.281 169.86L123.095 169.821C121.949 169.591 120.839 169.168 119.816 168.556L119.668 168.466L119.43 168.745L117.924 170.209C117.726 170.403 117.465 170.499 117.201 170.499C116.942 170.499 116.686 170.406 116.487 170.218L114.956 168.767C114.755 168.577 114.655 168.326 114.654 168.074C114.655 167.825 114.752 167.579 114.947 167.388L116.453 165.925L116.607 165.8L116.74 165.692L116.645 165.551C116.01 164.605 115.563 163.574 115.304 162.511L115.261 162.332L115.074 162.367L114.897 162.386L112.744 162.409H112.744H112.732C112.178 162.41 111.723 161.979 111.716 161.446L111.518 161.448V161.639H111.519H111.72L111.693 159.378V159.368C111.693 159.111 111.794 158.872 111.982 158.687L111.84 158.554L111.98 158.689L111.985 158.685L111.986 158.683C112.176 158.499 112.425 158.397 112.697 158.394L114.851 158.371H114.851L114.857 158.37L115.028 158.385L115.215 158.415L115.254 158.237C115.496 157.138 115.935 156.072 116.573 155.09L116.666 154.947L116.375 154.719L114.85 153.275C114.649 153.083 114.549 152.833 114.548 152.58C114.549 152.332 114.646 152.085 114.841 151.895L116.352 150.425C116.551 150.232 116.812 150.136 117.075 150.136C117.334 150.136 117.591 150.228 117.789 150.416L119.314 151.86L119.443 152.008L119.556 152.137L119.703 152.046C120.689 151.437 121.76 151.008 122.869 150.759L123.053 150.717L123.019 150.539L123 150.366L122.975 148.301V148.3V148.29C122.975 147.758 123.424 147.32 123.98 147.315L126.133 147.291H126.142C126.696 147.291 127.152 147.723 127.159 148.256L127.182 150.321V150.333L127.167 150.493L127.135 150.673L127.322 150.711C128.467 150.943 129.577 151.365 130.6 151.978L130.748 152.066L130.986 151.787L132.492 150.323L132.35 150.189Z" fill="#A08BCD"/>
<path d="M15.5814 132.442H6.67773V131.329H15.5814V132.442Z" fill="#212C5A"/>
<path d="M44.5183 132.442H20.0332V131.329H44.5183V132.442Z" fill="#212C5A"/>
<path d="M44.5183 149.136H28.9369V148.023H44.5183V149.136Z" fill="#212C5A"/>
<path d="M24.485 149.136H6.67773V148.023H24.485V149.136Z" fill="#212C5A"/>
<path d="M27.8239 139.12H6.67773V136.894H27.8239V139.12Z" fill="#212C5A"/>
<path d="M44.5183 139.12H31.1628V136.894H44.5183V139.12Z" fill="#212C5A"/>
<path d="M22.2591 144.684H6.67773V142.458H22.2591V144.684Z" fill="#212C5A"/>
<path d="M44.5183 144.684H28.9369V142.458H44.5183V144.684Z" fill="#212C5A"/>
<path d="M27.824 144.684H24.4851V142.458H27.824V144.684Z" fill="#212C5A"/>
<path d="M263.771 280.465H254.867V278.239H263.771V280.465Z" fill="#212C5A"/>
<path d="M292.708 280.465H268.223V278.239H292.708V280.465Z" fill="#212C5A"/>
<path d="M292.708 298.272H277.126V294.934H292.708V298.272Z" fill="#212C5A"/>
<path d="M273.787 298.272H254.867V294.934H273.787V298.272Z" fill="#212C5A"/>
<path d="M276.013 286.03H254.867V284.917H276.013V286.03Z" fill="#212C5A"/>
<path d="M292.708 286.03H279.352V284.917H292.708V286.03Z" fill="#212C5A"/>
<path d="M270.449 291.595H254.867V290.482H270.449V291.595Z" fill="#212C5A"/>
<path d="M292.708 291.595H278.239V290.482H292.708V291.595Z" fill="#212C5A"/>
<path d="M276.013 291.595H273.787V290.482H276.013V291.595Z" fill="#212C5A"/>
<path d="M268.139 102.378C262.623 103.559 257.175 100.033 255.994 94.5171C254.814 89.0016 258.339 83.5537 263.855 82.3722C269.371 81.1914 274.818 84.7181 275.999 90.2337C277.18 95.7492 273.653 101.197 268.139 102.378ZM287.039 83.6688L283.266 84.477C283.14 84.5034 283.02 84.5431 282.905 84.5898C281.982 82.5876 280.726 80.8002 279.219 79.2826C279.304 79.1893 279.387 79.0897 279.456 78.9801L281.538 75.7303C282.186 74.7191 281.89 73.3696 280.878 72.7217L277.63 70.6394C276.618 69.9915 275.269 70.2871 274.621 71.299L272.539 74.5488C272.469 74.6577 272.413 74.7728 272.364 74.8903C270.409 74.1747 268.321 73.7819 266.177 73.7616C266.171 73.6372 266.159 73.5119 266.132 73.3867L265.324 69.6127C265.072 68.4382 263.913 67.6876 262.738 67.9388L258.964 68.747C257.79 68.9982 257.039 70.1579 257.29 71.3332L258.098 75.1065C258.126 75.2325 258.164 75.3523 258.211 75.4674C256.209 76.3891 254.422 77.6453 252.904 79.1535C252.811 79.0672 252.711 78.9855 252.601 78.9155L249.352 76.8333C248.865 76.5214 248.286 76.4164 247.721 76.5377L247.711 76.54C247.142 76.6645 246.657 77.0028 246.343 77.4929L244.261 80.7426C243.613 81.7538 243.909 83.1033 244.92 83.7513L248.17 85.8335C248.28 85.9043 248.395 85.9587 248.512 86.007C247.796 87.9624 247.403 90.0509 247.383 92.1953C247.259 92.2 247.134 92.2132 247.008 92.2404L243.234 93.0486C242.06 93.2999 241.308 94.4596 241.56 95.6341L242.368 99.4081C242.62 100.583 243.779 101.333 244.954 101.082L248.728 100.274C248.854 100.247 248.974 100.208 249.088 100.161C250.011 102.163 251.268 103.951 252.777 105.469C252.689 105.562 252.608 105.66 252.537 105.77L250.455 109.02C250.141 109.51 250.037 110.093 250.161 110.661C250.286 111.23 250.624 111.716 251.114 112.028L254.364 114.111C254.867 114.433 255.452 114.522 255.994 114.406C256.543 114.288 257.047 113.96 257.373 113.452L259.455 110.202C259.525 110.092 259.58 109.976 259.628 109.86C261.584 110.576 263.672 110.968 265.817 110.989C265.821 111.113 265.835 111.238 265.862 111.364L266.67 115.138C266.921 116.313 268.08 117.063 269.255 116.812L273.029 116.004C274.203 115.753 274.955 114.592 274.703 113.418L273.895 109.644C273.868 109.518 273.829 109.399 273.782 109.283C275.785 108.362 277.572 107.105 279.09 105.596C279.184 105.682 279.282 105.765 279.391 105.835L282.641 107.917C283.144 108.239 283.73 108.328 284.272 108.212C284.82 108.094 285.324 107.767 285.65 107.258L287.733 104.008C288.38 102.997 288.084 101.647 287.073 100.999L283.823 98.9173C283.714 98.8473 283.599 98.7913 283.482 98.7423C284.197 96.7868 284.589 94.6992 284.61 92.5555C284.734 92.55 284.86 92.5376 284.985 92.5103L288.759 91.7022C289.934 91.451 290.684 90.2912 290.433 89.1167L289.625 85.3427C289.373 84.1682 288.213 83.4176 287.039 83.6688Z" fill="#212C5A"/>
<path d="M214.89 88.4186V86.0363L223.066 83.0633V84.3974L214.89 81.4243V79.0421L223.961 82.4916V84.9691L214.89 88.4186Z" fill="white"/>
<path d="M205.616 92.3064L211.905 74.3539H214.554L208.265 92.3064H205.616Z" fill="white"/>
<path d="M205.09 88.4186L196.018 84.9691V82.4916L205.09 79.0421V81.4243L196.914 84.3974V83.0633L205.09 86.0363V88.4186Z" fill="white"/>
<path d="M69.6105 288.068V278.463H71.8334V286.257H76.6497V288.068H69.6105Z" fill="white"/>
<path d="M56.5051 288.068V278.463H58.3438L62.4329 285.242H61.4587L65.4791 278.463H67.3041L67.3315 288.068H65.2458L65.2321 281.66H65.6163L62.4055 287.053H61.4038L58.1243 281.66H58.5908V288.068H56.5051Z" fill="white"/>
<path d="M50.0125 288.068V280.275H46.9388V278.463H55.3091V280.275H52.2354V288.068H50.0125Z" fill="white"/>
<path d="M43.5275 278.463H45.7504V288.068H43.5275V278.463ZM39.164 288.068H36.941V278.463H39.164V288.068ZM43.6921 284.13H38.9993V282.25H43.6921V284.13Z" fill="white"/>
<path d="M80.4034 171.081C79.5797 171.081 78.7903 170.973 78.0353 170.757C77.2802 170.531 76.6723 170.242 76.2114 169.889L77.0204 168.095C77.4617 168.409 77.9814 168.668 78.5795 168.874C79.1875 169.07 79.8003 169.168 80.4181 169.168C80.8888 169.168 81.2663 169.124 81.5506 169.036C81.8448 168.938 82.0605 168.806 82.1978 168.639C82.3351 168.472 82.4037 168.281 82.4037 168.065C82.4037 167.791 82.2959 167.575 82.0802 167.418C81.8644 167.251 81.5801 167.119 81.2271 167.021C80.874 166.913 80.4818 166.815 80.0504 166.727C79.6287 166.629 79.2022 166.511 78.7707 166.374C78.3491 166.237 77.9617 166.06 77.6087 165.844C77.2557 165.629 76.9665 165.344 76.7409 164.991C76.5252 164.638 76.4173 164.187 76.4173 163.638C76.4173 163.05 76.5742 162.515 76.888 162.035C77.2116 161.545 77.6921 161.157 78.3295 160.873C78.9766 160.579 79.7856 160.432 80.7564 160.432C81.4036 160.432 82.0409 160.51 82.6685 160.667C83.2961 160.814 83.8501 161.04 84.3306 161.344L83.5951 163.153C83.1147 162.878 82.6342 162.677 82.1537 162.55C81.6732 162.412 81.2025 162.344 80.7417 162.344C80.2808 162.344 79.9033 162.398 79.6091 162.505C79.3149 162.613 79.1041 162.756 78.9766 162.932C78.8492 163.099 78.7854 163.295 78.7854 163.52C78.7854 163.785 78.8933 164.001 79.109 164.168C79.3247 164.324 79.6091 164.452 79.9621 164.55C80.3151 164.648 80.7024 164.746 81.1241 164.844C81.5555 164.942 81.9821 165.055 82.4037 165.182C82.8352 165.31 83.2274 165.482 83.5804 165.697C83.9334 165.913 84.2178 166.197 84.4335 166.55C84.6591 166.903 84.7718 167.35 84.7718 167.889C84.7718 168.467 84.61 168.997 84.2864 169.477C83.9629 169.958 83.4775 170.345 82.8303 170.639C82.1929 170.934 81.3839 171.081 80.4034 171.081Z" fill="white"/>
<path d="M70.9602 171.081C70.264 171.081 69.6218 170.953 69.0334 170.698C68.4549 170.433 67.9793 170.061 67.6067 169.58L68.9305 167.992C69.2148 168.364 69.5139 168.649 69.8277 168.845C70.1415 169.031 70.4798 169.124 70.8426 169.124C71.8133 169.124 72.2987 168.556 72.2987 167.418V162.52H68.6804V160.608H74.6668V167.286C74.6668 168.561 74.353 169.512 73.7255 170.139C73.0979 170.767 72.1762 171.081 70.9602 171.081Z" fill="white"/>
<path d="M233.241 269.442V260.867H235.635V269.442H233.241ZM230.03 266.287V264.023H238.864V266.287H230.03Z" fill="white"/>
<path d="M222.058 269.442V260.867H224.452V269.442H222.058ZM218.847 266.287V264.023H227.681V266.287H218.847Z" fill="white"/>
<path d="M211.915 271.873C210.913 271.873 209.979 271.712 209.112 271.391C208.259 271.057 207.516 270.587 206.885 269.98C206.254 269.374 205.759 268.662 205.401 267.846C205.054 267.029 204.881 266.132 204.881 265.155C204.881 264.177 205.054 263.28 205.401 262.464C205.759 261.647 206.254 260.935 206.885 260.329C207.529 259.723 208.277 259.259 209.131 258.937C209.985 258.603 210.919 258.436 211.934 258.436C213.059 258.436 214.074 258.634 214.977 259.03C215.893 259.414 216.66 259.983 217.279 260.738L215.349 262.519C214.903 262.012 214.408 261.635 213.864 261.387C213.319 261.127 212.725 260.997 212.082 260.997C211.476 260.997 210.919 261.096 210.412 261.294C209.904 261.492 209.465 261.777 209.094 262.148C208.723 262.519 208.432 262.958 208.222 263.466C208.024 263.973 207.925 264.536 207.925 265.155C207.925 265.773 208.024 266.336 208.222 266.844C208.432 267.351 208.723 267.79 209.094 268.161C209.465 268.533 209.904 268.817 210.412 269.015C210.919 269.213 211.476 269.312 212.082 269.312C212.725 269.312 213.319 269.188 213.864 268.941C214.408 268.681 214.903 268.291 215.349 267.772L217.279 269.553C216.66 270.308 215.893 270.883 214.977 271.279C214.074 271.675 213.053 271.873 211.915 271.873Z" fill="white"/>
<path d="M317.557 187.233L321.9 177.49H324.127L328.484 187.233H326.118L322.555 178.631H323.445L319.868 187.233H317.557ZM319.729 185.145L320.327 183.433H325.339L325.951 185.145H319.729Z" fill="white"/>
<path d="M311.906 187.233L307.702 177.49H310.138L313.813 186.12H312.379L316.11 177.49H318.351L314.133 187.233H311.906Z" fill="white"/>
<path d="M297.575 187.233L301.918 177.49H304.145L308.502 187.233H306.136L302.572 178.631H303.463L299.886 187.233H297.575ZM299.746 185.145L300.345 183.433H305.356L305.969 185.145H299.746Z" fill="white"/>
<path d="M293.324 187.4C292.665 187.4 292.058 187.28 291.501 187.039C290.953 186.788 290.503 186.435 290.151 185.981L291.403 184.477C291.673 184.83 291.956 185.099 292.253 185.285C292.549 185.461 292.87 185.549 293.213 185.549C294.132 185.549 294.591 185.011 294.591 183.934V179.299H291.167V177.49H296.832V183.809C296.832 185.016 296.535 185.916 295.941 186.51C295.347 187.104 294.475 187.4 293.324 187.4Z" fill="white"/>
</svg>
