<svg width="61" height="41" viewBox="0 0 61 41" fill="none" xmlns="http://www.w3.org/2000/svg">
<path d="M9.01751 1C-1.38156 8.02 -1.69404 25.6215 8.25226 34.3581C16.9351 41.985 42.8748 43.9033 52.0071 27.0767C62.0035 23.2648 63.5412 10.8791 53.3023 6.85282" stroke="black" stroke-linecap="round"/>
<path fill-rule="evenodd" clip-rule="evenodd" d="M43.1667 23.931C44.779 23.8666 45.9794 20.7767 45.8481 17.0294C45.803 15.7426 45.6068 14.5456 45.3032 13.5311C44.7581 14.1668 44.1253 14.7149 43.4772 15.0487C43.7281 14.161 44.2717 13.2476 44.9216 12.4785C44.3405 11.1455 43.5436 10.327 42.6912 10.361C41.079 10.4254 39.8785 13.5153 40.0098 17.2626C40.1411 21.0098 41.5545 23.9954 43.1667 23.931Z" fill="black"/>
<path fill-rule="evenodd" clip-rule="evenodd" d="M13.5267 23.931C15.1389 23.8666 16.3394 20.7767 16.2081 17.0294C16.163 15.7426 15.9667 14.5456 15.6631 13.5311C15.1181 14.1668 14.4853 14.7149 13.8372 15.0487C14.0881 14.161 14.6317 13.2476 15.2816 12.4785C14.7004 11.1455 13.9036 10.327 13.0512 10.361C11.439 10.4254 10.2385 13.5153 10.3698 17.2626C10.5011 21.0098 11.9145 23.9954 13.5267 23.931Z" fill="black"/>
<path d="M14.7532 27.3728C14.7723 28.2039 13.8046 28.9204 12.5915 28.973C11.3784 29.0255 10.3794 28.3944 10.3603 27.5632C10.3411 26.7321 11.3089 26.0157 12.522 25.9631C13.735 25.9105 14.734 26.5416 14.7532 27.3728Z" fill="#E598BE"/>
<path d="M45.9532 27.3728C45.9724 28.2039 45.0046 28.9204 43.7915 28.973C42.5785 29.0255 41.5795 28.3944 41.5603 27.5632C41.5411 26.7321 42.509 26.0157 43.722 25.9631C44.9351 25.9105 45.934 26.5416 45.9532 27.3728Z" fill="#E598BE"/>
<path fill-rule="evenodd" clip-rule="evenodd" d="M24.8184 27.5523C24.4866 27.6517 24.3172 27.95 24.4399 28.2186C25.1433 29.7575 26.9167 30.7685 28.7935 30.6267C29.9126 30.5422 30.7341 30.0697 31.2669 29.6319C31.7989 29.1948 32.0809 28.7625 32.1309 28.6823C32.2905 28.4268 32.164 28.1148 31.8482 27.9856C31.5325 27.8564 31.1472 27.9589 30.9876 28.2145C30.97 28.2426 30.7585 28.5719 30.3543 28.9041C29.951 29.2355 29.3937 29.5398 28.6745 29.5941L28.6745 29.5942C27.4603 29.6859 26.1747 29.0256 25.6415 27.8587C25.5187 27.5901 25.1502 27.4529 24.8184 27.5523Z" fill="black"/>
<path d="M30.3521 22.3801C30.4037 23.1429 29.1627 24.3691 27.9996 24.2927C26.8551 24.2174 25.818 22.8825 25.9762 22.1368C26.1392 21.3687 27.5639 21.2534 28.2071 21.2846C28.9024 21.3183 30.2995 21.6019 30.3521 22.3801Z" fill="black"/>
</svg>
